<svg xmlns="http://www.w3.org/2000/svg" width="1024" height="1024" viewBox="0 0 1024 1024" fill="none"><g clip-path="url(#clip0_53_1069)"><path d="M310.248 629.26C307.196 629.357 305.171 627.48 302.248 626.975C299.48 626.498 296.331 627.284 294.139 629.041C291.681 631.011 290.301 634.02 290.006 637.12C289.625 641.116 290.94 643.35 293.473 646.29C295.058 647.377 296.885 648.475 298.763 648.94C301.993 649.741 305.579 649.032 308.321 647.173C308.634 646.964 308.935 646.74 309.226 646.5C309.517 646.261 309.795 646.008 310.06 645.741C310.325 645.474 310.577 645.195 310.815 644.904C311.053 644.612 311.276 644.31 311.484 643.996C311.691 643.682 311.883 643.359 312.059 643.027C312.235 642.693 312.394 642.353 312.536 642.005C312.678 641.656 312.803 641.301 312.909 640.941C313.016 640.58 313.105 640.214 313.176 639.844C313.868 636.041 312.474 632.306 310.248 629.26Z" fill="#F3B09D"></path><path d="M398.848 566.156C397.687 566.194 396.61 566.307 395.476 566.574C389.675 567.947 386.143 572.448 383.129 577.23C383.05 578.223 382.974 579.226 383 580.223C383.124 584.855 385.096 588.734 388.369 591.923C389.847 592.506 391.405 593.195 393.006 593.317C395.539 593.51 398.282 592.58 400.14 590.842C403.198 587.98 404.272 583.475 404.266 579.428C404.26 574.074 402.636 569.884 398.848 566.156Z" fill="#F3B09D"></path><path d="M741.139 639.59C740.962 639.507 740.788 639.416 740.608 639.342C738.251 638.373 736.167 638.681 733.889 639.739C728.749 642.128 726.379 647.282 724.65 652.319C724.813 653.306 724.991 654.263 725.276 655.223C726.601 659.677 728.928 661.505 732.86 663.655C734.567 664.055 736.305 664.378 738.056 664.046C741.619 663.371 744.67 661.104 746.652 658.118C748.523 655.297 749.514 651.863 748.657 648.515C747.579 644.3 744.639 641.794 741.139 639.59Z" fill="#F3B09D"></path><path d="M592.182 823.424C591.131 822.932 590.067 822.442 588.952 822.116C585.709 821.168 581.757 821.308 578.769 822.987C576.196 824.432 574.416 826.886 573.734 829.745C572.63 834.38 574.857 840.1 577.341 843.974C579.138 845.74 581.191 847.333 583.786 847.548C586.386 847.761 588.81 846.706 590.699 844.96C593.976 841.928 596.154 836.814 596.18 832.363C596.202 828.549 594.792 826.095 592.182 823.424Z" fill="#F3B09D"></path><path d="M795.182 498.572C788.101 495.505 780.986 493.573 773.199 494.344C769.65 494.695 765.365 495.472 763.08 498.488C762.34 499.466 761.626 501.052 761.884 502.273C762.38 504.613 764.604 505.678 766.46 506.876C772.861 510.349 781.463 514.333 788.871 514.595C791.504 514.688 794.186 514.026 796.105 512.135C797.733 510.531 798.874 508.061 798.901 505.763C798.936 502.807 797.068 500.632 795.182 498.572Z" fill="#F3B09D"></path><path d="M790.967 503.347C789.452 502.713 787.865 502.246 786.285 501.801C782.51 500.736 774.368 499.047 770.911 500.972L770.773 501.77L772.844 503.215C776.998 505.174 784.994 509.598 789.752 508.437C791.112 508.105 791.536 507.631 792.285 506.506C792.234 504.894 791.878 504.629 790.967 503.347Z" fill="#FEFEFE"></path><path d="M803.604 458.936C800.419 457.817 797.132 457.422 793.768 457.579C783.916 458.039 772.279 463.666 765.86 471.165C764.552 472.693 763.098 474.864 763.516 476.989C763.892 478.896 765.147 479.802 766.753 480.648C772.331 480.629 777.982 480.745 783.534 480.144C791.186 479.316 800.063 477.627 805.014 471.114C806.627 468.993 807.92 466.367 807.448 463.647C807.06 461.407 805.382 460.097 803.604 458.936Z" fill="#F3B09D"></path><path d="M802.074 464.937C799.542 463.95 797.04 463.661 794.33 463.799C785.94 464.224 776.688 468.348 770.946 474.489C777.183 475.221 785.865 474.441 791.86 472.666C796.63 471.254 799.662 469.31 802.074 464.937Z" fill="#FEFEFE"></path><path d="M501.164 17.1084C500.556 16.8077 499.958 16.5131 499.329 16.2604C497.081 15.3573 494.96 15.5437 492.774 16.5646C486.691 19.405 482.984 28.1541 480.909 34.1866C477.41 44.3586 474.044 59.2996 478.95 69.4092C479.908 70.4376 480.366 70.9346 481.756 71.3592C483.412 71.2346 484.361 70.8098 485.652 69.7494C493.713 63.138 503.788 40.5808 504.788 30.1926C505.289 24.9879 504.543 21.1465 501.164 17.1084Z" fill="#F3B09D"></path><path d="M497.692 22.3928C497.483 22.3611 497.275 22.3154 497.064 22.2981C495.391 22.1589 494.136 22.8534 492.924 23.9272C484.792 31.1282 483.404 50.4599 483.096 60.5721C483.41 61.3584 483.16 60.9958 483.931 61.5984C489.031 57.3518 495.882 41.2285 497.778 34.7641C498.999 30.6022 499.877 26.3549 497.692 22.3928Z" fill="#FEFEFE"></path><path d="M425.67 8.07834C424.946 7.78559 424.241 7.57397 423.473 7.41938C420.016 6.72327 417.605 7.05332 414.688 9.12169C412.287 10.8239 411.068 13.253 410.703 16.1447C408.853 30.8267 423.69 52.7274 432.277 64.0602C433.098 65.2054 434.055 66.3847 435.149 67.2851C436.212 68.1601 437.157 68.2937 438.504 68.1917C439.389 67.7294 439.844 67.3948 440.448 66.5683C444.603 60.8934 441.51 39.8173 440.132 33.205C438.036 23.1544 434.495 13.9015 425.67 8.07834Z" fill="#F3B09D"></path><path d="M424.006 14.8397C422.657 14.3816 420.859 13.8005 419.432 14.2379C418.233 14.6046 417.497 15.1149 417.066 16.3362C414.124 24.6632 428.975 48.0503 433.573 55.2262C434.48 56.3975 435.562 57.4904 436.553 58.595C436.554 58.412 436.557 58.2289 436.553 58.0467C436.345 44.7862 433.9 24.5603 424.006 14.8397Z" fill="#FEFEFE"></path><path d="M558.243 65.7301C557.925 65.5944 557.604 65.4674 557.281 65.3454C551.17 63.0431 545.352 64.5472 539.624 67.1933C529.877 71.6979 504.565 88.5553 501.087 98.1285C501.181 98.9622 501.096 99.5881 501.628 100.281C503.141 102.248 505.494 102.629 507.791 103.09C511.815 103.656 516.023 104.036 520.086 103.785C530.286 103.156 552.133 93.5431 558.825 85.6697C561.356 82.6902 563.683 78.3882 563.198 74.3398C562.796 70.9794 560.794 67.8547 558.243 65.7301Z" fill="#F3B09D"></path><path d="M556.39 70.6314C555.444 70.4219 554.51 70.2267 553.544 70.1344C541.653 68.9959 522.141 84.7228 513.429 92.1528C511.998 93.372 509.19 95.4718 509.045 97.3406L510.286 97.7587C511.682 97.8805 513.081 97.9392 514.483 97.9349C515.885 97.931 517.283 97.8642 518.679 97.7347C520.074 97.6049 521.461 97.4131 522.84 97.1591C524.218 96.9052 525.583 96.5897 526.933 96.2128C538.019 93.2225 551.054 87.7727 556.96 77.3994C556.993 75.0442 557.025 72.9309 556.39 70.6314Z" fill="#FEFEFE"></path><path d="M231.303 863.836C230.428 863.607 229.602 863.537 228.702 863.474C227.426 864.075 226.54 864.608 225.64 865.717C222.532 869.546 220.947 876.674 221.668 881.521C222.49 887.049 226.069 890.693 230.406 893.817C231.93 894.418 233.647 895.067 235.238 894.453C235.647 893.739 235.88 893.565 235.836 892.684C235.668 889.248 232.328 887.526 230.258 885.255C224.78 879.245 231.175 870.492 231.303 863.836Z" fill="#F3B09D"></path><path d="M275.958 852.949C271.935 850.998 267.851 849.684 263.349 849.526C257.469 849.319 251.486 851.192 247.193 855.316C246.96 855.541 246.733 855.771 246.512 856.007C246.29 856.243 246.075 856.485 245.866 856.732C245.658 856.98 245.456 857.233 245.259 857.49C245.064 857.748 244.875 858.01 244.693 858.278C244.511 858.546 244.335 858.817 244.167 859.093C243.999 859.37 243.838 859.651 243.684 859.935C243.53 860.221 243.384 860.51 243.245 860.802C243.106 861.094 242.975 861.39 242.851 861.689C242.727 861.988 242.611 862.29 242.503 862.595C242.396 862.9 242.296 863.208 242.203 863.518C242.111 863.829 242.027 864.141 241.95 864.455C241.874 864.77 241.806 865.087 241.747 865.404C241.687 865.723 241.635 866.042 241.592 866.363C241.548 866.684 241.513 867.005 241.486 867.328C241.459 867.651 241.441 867.974 241.431 868.297C241.42 868.621 241.419 868.944 241.425 869.268C241.558 876.965 245.93 882.358 251.162 887.443C255.414 890.563 259.792 892.454 265.17 892.214C265.528 892.198 265.884 892.173 266.241 892.14C266.597 892.106 266.952 892.064 267.306 892.012C267.659 891.961 268.012 891.901 268.363 891.832C268.714 891.763 269.063 891.686 269.41 891.6C269.757 891.514 270.102 891.419 270.444 891.315C270.786 891.212 271.126 891.1 271.463 890.979C271.8 890.859 272.134 890.73 272.464 890.593C272.794 890.456 273.121 890.311 273.444 890.158C273.768 890.005 274.087 889.844 274.401 889.675C274.716 889.506 275.027 889.329 275.333 889.144C275.64 888.96 275.941 888.768 276.238 888.568C276.535 888.369 276.827 888.162 277.113 887.948C277.399 887.734 277.681 887.513 277.957 887.284C278.232 887.056 278.501 886.821 278.765 886.58C279.029 886.339 279.286 886.091 279.538 885.836C279.789 885.582 280.034 885.322 280.273 885.055C284.245 880.57 285.667 874.966 285.068 869.072C284.371 862.236 281.224 857.143 275.958 852.949Z" fill="#F3B09D"></path><path d="M264.159 858.349C262.119 857.731 259.818 857.329 257.754 858.026C254.657 859.073 252.274 861.457 250.99 864.43C249.427 868.046 249.73 870.713 251.116 874.303C252.032 875.645 252.954 877.392 254.394 878.182C256.566 876.454 258.584 867.822 260.019 864.768C261.117 862.432 262.611 860.399 264.159 858.349Z" fill="#FEFEFE"></path><path d="M651.511 162.091C637.359 155.232 621.205 154.637 606.077 158.171C596.791 160.34 587.666 163.257 579.129 167.551C548.517 182.946 516.231 217.469 494.52 243.878C488.001 251.806 480.695 263.821 473.985 270.615C470.071 274.576 465.249 276.879 460.446 279.549C450.352 285.16 441.702 292.937 435.635 302.832C431.512 309.559 428.316 318.174 428.011 326.118C427.694 334.372 433.039 339.284 434.088 346.87C435.156 354.6 434.308 363.288 434.589 371.143C434.714 375.764 434.961 380.378 435.331 384.985C435.702 389.592 436.195 394.187 436.81 398.769C437.424 403.35 438.16 407.911 439.017 412.453C439.874 416.995 440.851 421.511 441.948 426.002C445.927 441.817 451.2 458.504 459.129 472.796C474.6 500.687 500.561 523.106 525.934 541.775C532.221 546.4 538.531 551.173 545.241 555.172C544.361 560.965 542.751 566.997 540.307 572.333C538.111 577.131 530.85 589.785 525.808 591.658C521.35 589.621 517.056 588.944 512.275 590.334C505.745 592.232 499.676 597.291 496.814 603.487C495.753 605.782 495.208 608.328 493.981 610.538C493.299 611.765 492.065 611.782 490.742 612.151C489.14 612.596 487.707 612.873 486.405 613.985C483.341 616.599 481.764 620.328 481.466 624.289C480.879 632.096 484.084 641.25 489.025 647.222C488.005 649.304 486.74 651.539 486.328 653.833C484.981 661.349 488.235 667.971 494.696 671.957C496.425 673.023 499.267 673.809 500.651 675.163C501.583 676.076 499.972 684.541 502.956 688.714C505.883 692.806 511.338 695.428 516.178 696.137C521.094 702.621 525.27 704.895 533.155 706.506C530.195 714.122 526.854 721.599 523.841 729.199C519.046 741.295 514.547 753.582 508.996 765.362C498.727 787.151 484.126 808.404 467.91 826.203C459.922 834.97 450.912 842.864 442.381 851.099C426.381 866.546 410.654 881.879 393.182 895.69C386.504 900.968 379.768 906.35 372.821 911.266C368.633 914.23 363.894 916.754 359.927 919.989C358.602 921.071 357.292 922.345 356.486 923.875C355.858 925.068 355.732 925.996 356.088 927.305C357 928.053 357.321 928.298 358.547 928.422C361.017 928.675 363.63 927.368 365.716 926.197C370.632 923.439 375.271 919.517 379.761 916.113C388.674 909.337 397.503 902.453 406.248 895.462C421.113 882.949 435.03 869.687 448.901 856.113C457.027 848.163 465.527 840.492 473.266 832.165C475.621 829.606 477.923 827 480.171 824.346C482.419 821.691 484.612 818.993 486.749 816.249C488.886 813.505 490.966 810.719 492.989 807.89C495.012 805.06 496.975 802.19 498.88 799.28C500.785 796.37 502.63 793.422 504.413 790.437C506.197 787.451 507.918 784.43 509.578 781.373C511.238 778.317 512.834 775.228 514.367 772.105C515.9 768.983 517.367 765.831 518.77 762.649C521.886 755.387 540.826 707.019 542.798 705.548C546.641 705.696 550.366 712.304 555.489 713.998C555.903 714.137 556.323 714.256 556.749 714.353C557.175 714.452 557.604 714.528 558.037 714.583C558.471 714.638 558.906 714.672 559.342 714.683C559.779 714.695 560.216 714.685 560.652 714.654C561.087 714.622 561.52 714.568 561.951 714.493C562.381 714.419 562.807 714.323 563.227 714.206C563.648 714.088 564.062 713.951 564.469 713.792C564.877 713.634 565.275 713.455 565.664 713.257C570.614 710.74 572.182 706.609 573.813 701.685C579.568 702.512 585.277 702.446 590.307 699.195C591.971 698.12 606.2 684.133 607.178 682.558C608.899 679.78 609.453 676.339 610.165 673.191C609.409 670.424 608.268 668.177 606.736 665.774C611.163 662.621 615.87 659.894 620.255 656.677C637.271 644.16 653.738 630.958 669.656 617.07C680.2 608.051 690.537 599.424 699.46 588.696C703.153 584.255 706.977 579.471 709.819 574.448C716.588 562.488 720.191 545.474 718.792 531.868C717.747 521.7 713.513 512.986 705.483 506.498C675.5 482.27 642.111 528.512 617.281 540.1C615.446 540.956 612.746 542.372 610.737 542.476C609.619 542.534 609.377 542.187 608.566 541.519C605.922 533.728 619.845 511.671 623.027 503.529L623.294 502.837C623.498 502.845 623.702 502.86 623.906 502.863C633.837 503.006 643.137 499.032 650.295 492.246C657.854 485.079 664.495 475.047 664.848 464.354C679.948 459.59 698.573 442.277 709.661 430.917C733.536 406.458 764.397 348.073 763.844 314.247C763.458 290.672 751.935 268.549 738.337 249.958C734.436 244.625 730.571 239.48 725.788 234.89C727.291 229.915 728.828 224.992 728.138 219.722C726.98 210.877 716.408 202.621 709.549 197.511C696.571 187.841 693.183 191.149 678.663 193.279L678.472 192.712C673.072 176.65 666.777 169.686 651.511 162.091Z" fill="#F3B09D"></path><path d="M640.514 633.716C639.659 633.542 638.847 633.477 637.98 633.408C636.73 633.958 635.61 634.48 634.623 635.448C633.221 636.823 632.16 638.318 632.072 640.304C632.229 640.288 632.389 640.291 632.544 640.256C635.017 639.704 639.058 635.834 640.514 633.716Z" fill="#FEFEFE"></path><path d="M704.388 536.336C703.007 537.089 702.381 538.883 701.899 540.371C701.159 542.656 701.078 544.091 702.215 546.226C703.064 545.187 704.061 544.094 704.666 542.893C705.801 540.638 705.094 538.564 704.388 536.336Z" fill="#FEFEFE"></path><path d="M616.761 636.444C615.197 637.117 613.246 638.443 612.651 640.09C612.153 641.468 612.729 642.528 613.269 643.779C615.003 642.582 616.946 641.523 618.069 639.697C618.219 637.973 617.762 637.794 616.761 636.444Z" fill="#FEFEFE"></path><path d="M740.303 266.088L739.862 266.492C739.939 268.837 739.877 271.907 740.783 274.087C741.328 275.393 741.886 275.404 743.12 275.961C743.703 275.731 744.272 275.419 744.835 275.144C745.269 272.165 741.906 268.41 740.303 266.088Z" fill="#FEFEFE"></path><path d="M721.298 221.095C719.576 224.348 716.852 226.522 714.08 228.862L714.616 229.397C715.819 229.443 717.103 229.553 718.3 229.433C719.675 229.296 720.214 228.664 721.086 227.691C721.806 225.504 721.468 223.352 721.298 221.095Z" fill="#FEFEFE"></path><path d="M594.1 530.495C594.055 530.503 594.009 530.505 593.965 530.52C592.522 531.04 591.771 531.852 591.013 533.15C590.745 537.051 593.9 537.166 595.007 540.363C595.058 540.509 595.101 540.656 595.149 540.802L595.492 540.739L595.754 539.833C595.378 538.637 595.283 537.552 595.309 536.307C595.361 533.993 595.006 532.649 594.1 530.495Z" fill="#FEFEFE"></path><path d="M600.264 508.716C599.292 508.399 598.292 508.049 597.291 508.51C596.12 509.049 595.647 509.7 595.346 510.924C594.897 512.755 595.951 514.027 596.783 515.545L596.802 516.483L597.596 516.866C598.115 516.534 598.211 516.515 598.675 515.978C600.416 513.963 600.586 511.203 600.264 508.716Z" fill="#FEFEFE"></path><path d="M674.614 556.181C673.416 556.527 673.592 556.525 672.865 557.4C672.571 559.433 672.414 562.556 673.688 564.274C674.382 565.21 674.03 564.347 674.468 565.615C674.542 565.831 674.597 566.053 674.662 566.271L674.942 566.438L675.37 565.354C675.874 565.051 676.445 564.748 676.838 564.292C677.71 563.281 678.077 561.991 678.061 560.686C677.339 558.678 676.14 557.629 674.614 556.181Z" fill="#FEFEFE"></path><path d="M689.059 590.123L686.786 589.474C683.136 590.566 678.887 596.395 676.539 599.332C677.066 599.358 677.592 599.393 678.118 599.375C681.972 599.249 686.575 592.915 689.059 590.123Z" fill="#FEFEFE"></path><path d="M674.078 603.999L672.362 603.469C668.912 604.133 662.376 610.921 660.372 613.709C660.984 613.703 661.708 613.73 662.314 613.592C666.114 612.728 672.117 607.183 674.078 603.999Z" fill="#FEFEFE"></path><path d="M701.761 572.783C701.174 572.79 700.919 572.773 700.384 572.838C698.543 573.059 696.95 575.265 695.819 576.648C694.052 578.81 690.714 582.554 691.005 585.301L692.287 585.627C695.997 582.948 700.095 576.958 701.761 572.783Z" fill="#FEFEFE"></path><path d="M657.382 616.769C657.132 616.804 656.877 616.816 656.637 616.888C655.06 617.36 643.641 626.775 642.841 628.239L643.575 630.308C643.843 630.253 644.117 630.211 644.376 630.117C647.926 628.834 656.2 621.34 658.009 618.249L657.382 616.769Z" fill="#FEFEFE"></path><path d="M634.889 558.014L634.51 557.986C633.029 558.88 632.436 562.685 631.883 564.425C633.274 566.532 634.813 568.439 636.426 570.373C637.863 569.07 639.296 567.793 639.247 565.691C639.175 562.584 636.836 560.205 634.889 558.014Z" fill="#FEFEFE"></path><path d="M716.978 212.536C714.874 216.19 712.508 219.659 709.339 222.485C706.658 224.877 704.098 226.561 702.077 229.681L702.42 230.169L703.47 229.735C703.676 229.691 703.883 229.65 704.088 229.601C704.4 229.527 704.711 229.443 705.023 229.367C706.703 228.955 708.091 228.342 709.597 227.507C713.048 225.591 718.006 222.438 718.784 218.233C719.235 215.803 718.241 214.499 716.978 212.536Z" fill="#FEFEFE"></path><path d="M747.181 279.162C744.826 279.238 742.471 279.345 740.117 279.284C739.737 282.261 737.754 289.579 738.728 292.036L739.56 292.169C743.196 290.96 748.604 291.793 752.397 292.176C750.957 287.819 749.228 283.269 747.181 279.162Z" fill="#FEFEFE"></path><path d="M753.219 295.117C750.067 295.551 745.961 296.62 742.905 295.465C742.777 295.457 742.648 295.429 742.52 295.441C741.529 295.54 738.786 295.406 738.04 295.834C735.976 297.022 734.979 303.385 734.158 305.809C741.144 306.029 748.146 307.562 755.14 307.186C754.799 303.401 754.744 298.611 753.219 295.117Z" fill="#FEFEFE"></path><path d="M756.201 312.16C748.317 311.456 740.057 310.157 732.157 310.841C731.214 313.429 727.874 318.765 728.356 321.342C728.505 322.137 729.521 322.338 730.177 322.678C737.732 325.229 747.171 327.957 755.169 326.502C755.818 321.743 756.163 316.962 756.201 312.16Z" fill="#FEFEFE"></path><path d="M754.769 330.704C744.416 331.582 735.563 329.448 725.774 326.303C723.742 330.182 720.841 334.906 719.834 339.134C729.748 342.597 741.357 342.18 751.656 341.289C752.921 337.807 753.859 334.295 754.769 330.704Z" fill="#FEFEFE"></path><path d="M750.135 346.053C738.837 346.562 728.258 346.076 717.262 343.271L710.591 354.831C721.74 358.004 733.771 358.14 745.288 358.727C747.06 354.572 748.557 350.285 750.135 346.053Z" fill="#FEFEFE"></path><path d="M696.235 196.909C692.519 196.879 686.426 196.348 683.68 199.451C682.785 200.463 682.52 201.841 682.585 203.151C682.736 206.195 684.101 209.461 684.751 212.458C685.327 215.196 685.749 217.958 686.016 220.743C686.282 223.528 686.392 226.32 686.344 229.118L686.898 229.834C689.569 230.476 692.343 230.479 695.078 230.612C697.229 228.302 698.608 225.558 700.499 223.072C701.331 221.979 701.76 221.307 703.172 221.112L704.063 223.299C706.697 222.227 710.623 215.2 711.778 212.437C712.142 211.566 712.738 210.37 712.308 209.487C711.667 208.171 710.365 206.463 708.917 206.036C708.309 208.29 707.875 211.156 706.523 213.068L705.778 213.16C704.16 211.204 704.881 203.815 703.328 199.937L701.371 199.871C700.166 201.167 700.288 204.685 699.835 206.515L699.021 206.79C696.009 204.738 697.028 200.896 696.361 197.524L696.235 196.909Z" fill="#FEFEFE"></path><path d="M443.231 350.597L442.587 350.329L442.035 350.945C440.783 367.851 442.015 385.275 444.513 402.018C448.958 431.806 458.966 460.396 475.225 485.771C477.921 489.98 480.487 494.593 483.786 498.347C488.37 503.563 493.896 508.059 499.092 512.648C513.968 525.782 529.356 537.884 545.291 549.703C545.888 549.599 545.496 549.703 546.385 549.166C547.021 547.049 547.471 544.948 547.894 542.782C513.967 519.754 480.103 490.931 464.245 451.97C456.612 433.219 452.762 412.781 449.599 392.865C448.554 386.279 446.328 366.019 446.78 360.124C446.937 358.069 447.391 355.303 446.637 353.351C445.988 351.665 444.729 351.388 443.231 350.597Z" fill="#FEFEFE"></path><path d="M522.03 596.926C520.398 596.1 518.635 595.719 516.803 595.826C512.149 596.097 507.876 598.844 504.938 602.34C500.123 608.069 500.542 611.657 501.128 618.56C501.286 620.422 501.003 621.229 499.788 622.614C496.561 623.316 495.179 619.855 492.582 618.616C491.631 618.162 491.333 618.314 490.395 618.603C489.183 620 488.746 621.42 488.341 623.213C486.918 629.516 488.663 635.823 492.766 640.775C494.337 642.67 496.347 644.551 497.573 646.68C498.161 647.7 498.521 648.995 498.099 650.137C497.226 652.501 494.438 653.343 492.322 654.327C492.58 658.047 493.308 661.767 495.646 664.791C499.737 670.082 504.131 666.652 509.248 667.42C509.829 667.966 510.204 668.375 510.418 669.181C511.066 671.624 509.003 674.309 507.954 676.402C506.834 678.638 506.546 680.7 507.417 683.07C511.67 694.633 517.79 684.898 524.067 687.801C525.31 690.352 523.447 692.706 524.044 695.313C524.326 696.543 525.294 697.525 526.368 698.116C529.48 699.826 536.756 700.745 540.073 699.268C542.622 698.133 544.397 696.185 547.174 695.404C548.024 695.553 548.556 695.458 549.18 696.119C550.728 697.764 550.428 699.816 550.328 701.9C551.143 703.219 552.078 704.49 552.956 705.77C555.776 706.892 561.34 709.038 564.339 707.861C569.237 705.939 563.769 697.984 566.154 693.901C570.075 691.078 574.284 696.484 580.158 695.973C585.335 695.52 589.127 692.21 592.322 688.42C591.435 686.888 590.609 686.028 590.691 684.234C593.325 682.288 597.695 684.855 600.784 681.776C603.092 679.476 603.254 676.089 603.348 673.045C598.885 664.518 589.464 659.246 582.43 653.03C569.182 641.322 555.4 630.01 542.475 617.956C535.809 611.739 529.289 601.592 522.03 596.926Z" fill="#FEFEFE"></path><path d="M558.807 685.014C557.768 684.955 557.278 685.191 556.363 685.664C555.296 687.126 555.256 688.998 555.034 690.745L556.442 691.167L557.469 690.481C558.4 688.769 558.538 686.914 558.807 685.014Z" fill="#F3B09D"></path><path d="M547.237 652.862C547.146 652.861 547.052 652.843 546.963 652.862C545.871 653.089 545.252 653.515 544.626 654.47C543.799 655.732 544.3 656.914 544.709 658.189C546.187 657.767 547.354 657.46 548.351 656.206C548.432 654.539 548.083 654.251 547.237 652.862Z" fill="#F3B09D"></path><path d="M557.936 697.179C556.21 697.05 555.263 696.964 553.776 697.935C552.763 699.34 552.733 700.597 552.579 702.257C553.837 701.68 555.326 701.074 556.441 700.261C557.637 699.387 557.737 698.558 557.936 697.179Z" fill="#F3B09D"></path><path d="M559.829 638.311C559.665 638.285 559.5 638.25 559.334 638.232C558.279 638.122 557.527 638.309 556.716 638.983C555.155 640.281 554.978 642.351 554.875 644.244L556.349 644.235C558.453 642.671 559.226 640.806 559.829 638.311Z" fill="#F3B09D"></path><path d="M502.557 631.194C500.913 631.128 499.707 631.221 498.42 632.369C497.278 633.39 497.095 634.855 496.964 636.281C498.64 636.391 499.873 636.355 501.356 635.464C502.458 634.047 502.451 632.905 502.557 631.194Z" fill="#F3B09D"></path><path d="M588.194 663.215C586.596 663.348 586.123 663.291 584.779 664.24C583.881 665.895 584.134 667.784 584.181 669.608L584.68 669.833C585.575 669.649 585.778 669.735 586.469 669.057C588.046 667.51 588.243 665.299 588.194 663.215Z" fill="#F3B09D"></path><path d="M585.63 680.14C583.997 679.878 583.597 679.886 582.267 680.811C581.299 682.702 581.487 684.729 581.467 686.803C582.185 687.104 582.362 686.99 583.11 686.895C585.185 685.077 585.332 682.739 585.63 680.14Z" fill="#F3B09D"></path><path d="M528.362 660.194C525.965 659.177 521.182 658.369 518.731 659.085L517.896 660.651C520.618 661.251 524.248 662.448 526.986 661.697C527.821 661.469 527.93 660.882 528.362 660.194Z" fill="#F3B09D"></path><path d="M536.274 637.381C534.792 637.582 533.804 638.265 532.661 639.182C530.743 640.72 528.918 642.55 528.674 645.094C530.841 644.709 532.671 643.593 534.24 642.053C535.739 640.581 536.24 639.477 536.274 637.381Z" fill="#F3B09D"></path><path d="M516.218 639.213C515.497 639.247 514.915 639.465 514.23 639.677C512.451 641.983 512.554 644.791 512.368 647.571C514.117 647.169 514.844 646.962 516.104 645.661C516.874 643.623 516.404 641.342 516.218 639.213Z" fill="#F3B09D"></path><path d="M540.049 689.212C538.208 688.873 536.077 688.657 534.371 689.639C532.465 690.736 532.154 692.471 531.79 694.448C532.252 694.691 532.655 694.655 533.168 694.684C535.855 693.521 538.559 691.791 540.049 689.212Z" fill="#F3B09D"></path><path d="M577.536 655.171C575.379 655.313 574.196 656.138 572.772 657.802C571.361 659.451 570.598 660.708 570.763 662.905L572.088 663.376C572.716 663.215 572.772 663.24 573.409 662.868C575.446 661.68 577.109 657.351 577.536 655.171Z" fill="#F3B09D"></path><path d="M520.295 668.046L518.911 668.246C516.63 670.633 517.051 675.739 516.857 678.914C517.84 678.464 519.051 677.998 519.732 677.122C521.373 675.014 520.476 670.547 520.295 668.046Z" fill="#F3B09D"></path><path d="M534.714 620.281L533.384 620.233L532.752 620.93C532.729 624.063 536.37 628.061 538.117 630.497C538.781 630.484 539.045 630.303 539.624 630.004C540.072 627.335 536.13 622.457 534.714 620.281Z" fill="#F3B09D"></path><path d="M556.351 661.514L554.802 661.565C552.701 663.149 550.099 664.968 548.535 667.085C547.735 668.168 548.042 668.672 548.2 669.957C551.318 669.031 554.732 666.741 556.385 663.865C556.995 662.803 556.655 662.634 556.351 661.514Z" fill="#F3B09D"></path><path d="M533.673 663.724C532.895 663.902 532.369 664.009 531.718 664.505C530.738 665.251 530.094 669.23 530.049 670.502C529.998 671.922 530.07 672.789 530.995 673.83C532.593 673.443 532.652 672.747 533.508 671.394C533.524 671.68 533.529 671.967 533.555 672.252C533.691 673.771 533.636 673.929 534.738 674.903L535.327 674.614C536.77 671.345 534.722 666.874 533.673 663.724Z" fill="#F3B09D"></path><path d="M520.542 604.19C519.518 604.087 518.461 603.973 517.431 604.03C515.587 604.133 512.354 605.643 511.304 607.22C510.595 608.284 510.894 608.64 511.234 609.771C514.21 612.876 514.503 610.098 517.6 610.877C517.744 610.913 517.874 610.989 518.011 611.044C517.148 612.384 516.519 613.753 516.822 615.341L517.834 615.613C519.049 615.275 519.932 614.855 520.982 614.14C522.539 613.078 524.421 611.711 524.809 609.766C523.161 608.006 521.86 606.193 520.542 604.19Z" fill="#F3B09D"></path><path d="M453.732 356.271L453.05 355.991L452.487 356.547C451.284 367.204 454.59 392.082 456.473 403.357C467.868 471.608 495.234 499.432 549.486 538.09C551.261 533.241 553.308 528.529 555.365 523.795C562.151 509.794 573.627 487.931 584.076 476.871C587.139 473.628 590.55 471.132 594.214 468.611C587.592 457.708 578.703 447.1 570.638 437.217C552.164 414.58 530.886 394.435 505.12 380.301C488.681 371.285 470.792 364.062 453.732 356.271Z" fill="#FEFEFE"></path><path d="M474.861 280.611L474.013 280.334C471.043 281.466 468.13 283.118 465.442 284.803C452.113 293.16 439.17 304.457 435.636 320.494C433.659 329.46 436.634 336.649 443.53 342.443C455.749 352.713 477.12 360.439 491.85 367.007C532.646 385.2 553.394 403.895 581.395 438.572C588.299 447.121 595.992 456.069 601.827 465.331C602.109 465.274 602.39 465.211 602.674 465.159C608.525 464.094 613.314 465.595 618.134 468.907C621.449 465.711 625.448 463.172 628.465 459.673C631.589 456.049 633.613 451.701 636.562 447.99C637.388 446.951 638.221 446.193 639.576 446.01L640.477 446.767C640.618 447.345 640.758 447.886 640.745 448.487C640.612 455.079 633.062 462.397 628.782 466.709C628.64 466.831 628.499 466.955 628.354 467.075L627.626 467.666C626.006 468.99 624.836 469.901 622.78 470.423C621.95 470.632 621.166 470.901 620.356 471.176C625.99 478.624 625.678 486.795 624.837 495.607C625.953 495.647 627.065 495.653 628.179 495.565C636.281 494.925 643.99 489.259 649.09 483.179C653.828 477.529 657.97 469.688 657.213 462.145C655.943 449.487 650.294 437.286 644.389 426.191C639 416.069 632.984 405.897 625.923 396.848C618.572 387.427 609.986 379.071 601.271 370.932C573.334 344.842 544.223 325.137 512.466 304.189C504.699 299.067 496.625 294.374 488.66 289.565C484.223 286.887 479.374 284.353 475.382 281.05L474.861 280.611Z" fill="#FEFEFE"></path><path d="M639.391 461.468C637.935 461.728 637.886 461.592 637.022 462.763C636.501 466.141 636.318 469.552 635.844 472.934C635.583 474.801 634.853 476.731 634.821 478.609C634.805 479.571 635.244 480.532 635.619 481.401C636.026 481.369 636.258 481.376 636.665 481.206C638.695 480.354 639.76 477.61 640.353 475.667C641.763 471.047 641.624 465.756 639.391 461.468Z" fill="#F3B09D"></path><path d="M602.309 393.967C601.419 393.641 600.482 393.182 599.517 393.323C597.586 393.606 590.498 404.062 588.812 406.154C586.05 409.578 583.189 413.048 580.071 416.152C578.48 417.735 576.025 419.159 574.794 420.979C574.003 422.149 574.287 422.601 574.506 423.927C575.162 424.112 575.973 424.406 576.663 424.362C579.004 424.207 582.267 421.059 583.954 419.48C588.774 414.969 599.997 403.058 601.916 397.364C602.272 396.307 602.276 395.073 602.309 393.967Z" fill="#F3B09D"></path><path d="M554.36 346.517C553.303 346.319 552.684 346.261 551.629 346.586C544.202 348.873 536.629 361.28 533.145 367.671C531.249 371.147 527.594 377.382 528.773 381.371C528.92 381.36 529.068 381.361 529.214 381.339C532.759 380.796 533.707 377.148 535.167 374.279C538.478 367.776 543.001 360.752 548.245 355.637C550.106 353.823 553.095 352.305 554.427 350.075C555.207 348.771 554.697 347.856 554.36 346.517Z" fill="#F3B09D"></path><path d="M582.486 367.11C581.41 366.894 580.389 366.611 579.293 366.853C575.779 367.629 558.317 392.172 555.642 397.033C554.586 398.95 554.389 399.665 555.014 401.812C556.597 401.485 557.932 401.279 559.097 400.053C562.677 396.285 565.434 391.078 568.734 386.958C572.597 382.135 579.58 375.65 582.561 370.821C583.396 369.47 582.839 368.516 582.486 367.11Z" fill="#F3B09D"></path><path d="M627.754 421.114C627.39 421.055 626.833 420.94 626.474 420.99C625.464 421.129 624.816 421.749 624.212 422.512C622.23 425.016 620.775 428.524 619.193 431.333C616.252 436.559 610.76 443.2 605.893 446.693C603.212 448.616 599.469 449.167 597.494 451.944C597.293 453.295 597.595 453.947 598.081 455.178C599.152 455.351 599.901 455.444 600.988 455.238C610.087 453.513 620.436 440.432 624.781 432.968C626.958 429.227 628.895 425.5 627.754 421.114Z" fill="#F3B09D"></path><path d="M525.638 325.317C525.14 325.277 524.868 325.229 524.396 325.268C520.486 325.596 516.188 331.471 513.917 334.391C508.699 341.099 497.394 357.582 498.495 366.257L500.841 366.254C503.589 364.793 505.412 358.905 506.689 356.148C509.726 349.592 512.691 344.3 517.469 338.763C520.02 335.81 523.521 332.697 525.514 329.356C526.362 327.937 525.917 326.83 525.638 325.317Z" fill="#F3B09D"></path><path d="M506.527 308.546C505.613 308.223 504.849 307.895 503.868 307.881C501.518 307.846 497.064 312.44 495.443 314.038C487.948 321.423 470.776 341.422 470.731 352.222C472.29 352.785 472.428 353.049 474.033 352.427C478.037 348.1 480.341 341.508 483.378 336.436C486.972 330.433 492.655 324.473 497.719 319.696C501.085 316.521 506.112 313.4 506.527 308.546Z" fill="#F3B09D"></path><path d="M484.29 295.861C483.514 295.513 482.453 294.926 481.571 294.901C476.157 294.744 469.858 300.966 466.307 304.593C458.829 312.232 449.187 328.723 449.347 339.421C450.046 340 450.52 340.165 451.4 340.367C455.366 338.354 459.715 324.677 462.461 320.318C465.948 314.78 470.723 309.547 475.981 305.657C478.218 304.001 481.504 302.203 483.313 300.099C484.357 298.885 484.255 297.376 484.29 295.861Z" fill="#F3B09D"></path><path d="M649.049 169.168C643.038 165.883 635.338 163.938 628.523 163.36C622.381 162.839 616.245 163.58 610.19 164.584C587.215 168.39 569.353 179.117 551.857 193.918C545.431 199.356 539.128 205.124 533.173 211.075C525.86 218.382 478.639 268.17 478.085 274.894C479.178 276.399 480.564 277.33 482.111 278.319C490.541 283.707 499.523 288.283 508.041 293.553C526.572 305.017 546.375 318.223 564.145 330.88C584.543 345.408 604.64 362.101 621.679 380.49C636.095 396.049 646.323 413.986 655.711 432.874C657.623 436.721 659.445 440.631 660.714 444.743C661.562 447.492 662.105 450.575 663.234 453.195C663.741 454.371 664.01 454.57 665.056 455.213C669.149 455.477 673.259 451.805 676.29 449.374C673.143 448.985 669.538 448.737 666.815 446.979C665.294 445.996 664.644 445.162 664.321 443.363L664.708 443.039C669.205 442.137 676.158 445.261 680.549 446.571C682.714 445.013 684.754 443.317 686.807 441.618C682.681 440.948 672.717 439.616 670.001 436.249C669.156 435.2 669.278 434.911 669.446 433.668C670.345 433.235 670.834 433.301 671.809 433.438C674.974 433.88 678.27 435.204 681.366 436.049C684.757 436.973 688.213 437.5 691.691 437.969C695.618 434.265 699.453 430.468 703.195 426.578C699.465 426.786 695.896 426.541 692.19 426.087C686.333 425.371 674.704 423.943 670.825 418.974C670.559 417.638 670.571 417.492 671.072 416.225C674.347 415.015 683.097 419.83 686.884 420.753C693.099 422.269 699.916 422.594 706.273 423.31C710.268 419.006 713.916 414.547 717.416 409.838C709.102 410.185 692.445 409.408 684.764 406.557C683.496 406.086 683.162 405.73 682.588 404.537C682.947 403.179 682.997 403.112 684.076 402.211C686.413 401.546 691.195 403.368 693.757 403.813C702.053 405.253 710.411 405.637 718.772 406.475L719.213 406.039L719.22 406.575C726.178 401.208 740.456 370.505 743.809 361.59C735.051 364.621 716.661 361.473 708.094 358.253C705.25 362.69 702.056 366.829 698.821 370.981C706.349 371.621 713.679 373.519 721.167 374.441C725.195 374.937 729.471 374.17 733.401 375.137C734.694 375.455 735.272 375.702 735.953 376.835C735.674 377.977 735.153 378.342 734.278 379.084C726.632 381.394 704.582 375.874 696.689 373.564C690.638 380.281 684.365 388.445 676.313 392.795C674.631 393.703 673.557 394.076 671.714 393.486C670.853 392.418 670.462 391.276 670.591 389.889C670.75 388.191 672.59 386.992 673.798 385.95C679.578 380.978 684.533 375.443 689.614 369.777C688.394 365.515 688.436 361.301 687.67 356.989C687.141 354.007 685.663 351.318 685.632 348.247C685.618 346.747 685.851 345.54 686.899 344.459L687.73 344.874C691.692 350.717 692.907 359.313 693.055 366.237C700.059 356.801 706.535 347.015 712.484 336.88C711.819 332.528 712.256 328.086 711.836 323.72C711.445 319.656 709.136 312.887 710.267 309.137C710.491 308.396 710.969 308.336 711.591 307.974L712.739 308.344C716.472 313.194 716.469 325.325 716.099 331.204C718.096 326.193 721.691 320.968 722.499 315.642L721.085 315.392C718.093 310.246 718.695 302.44 716.939 296.665C716.13 294.004 713.345 290.217 713.681 287.714L714.968 286.958C715.872 287.036 716.076 286.909 716.808 287.528C721.978 291.899 722.92 308.087 723.363 314.633C723.604 314.128 723.841 313.62 724.072 313.11C731.647 296.543 738.767 272.502 731.988 254.737C729.554 248.355 724.397 241.728 718.002 238.99C713.233 236.947 706.959 236.128 702.127 238.185C696.152 236.767 689.85 236.703 683.738 236.461C681.364 243.867 679.269 251.35 676.386 258.585C668.684 277.906 653.761 303.645 638.454 317.436C636.251 319.418 631.578 323.474 628.569 323.29C627.604 322.439 627.605 321.999 627.242 320.744C628.569 315.351 636.962 311.807 639.716 306.745C642.158 302.258 646.174 298.744 649.18 294.627C654.398 287.476 658.978 279.064 663.002 271.17C665.826 265.631 668.633 259.985 670.971 254.22C673.848 247.129 675.626 238.917 680.3 232.776C680.028 227.898 679.693 222.952 679.075 218.105C678.034 209.93 674.595 203.978 668.026 199.028C660.237 193.158 651.141 191.64 641.622 193.054C614.775 197.042 584.719 224.321 568.913 245.515C565.652 249.888 562.358 254.696 559.507 259.348C557.765 262.192 556.482 265.591 554.43 268.198C553.402 269.504 552.129 270.531 550.478 270.73L549.893 270.089C548.871 263.744 558.135 251.037 561.885 245.508C560.939 240.417 561.629 235.444 564.462 230.998C565.289 229.701 566.198 228.455 567.763 228.095L568.378 228.919C568.746 233.048 566.655 236.594 564.965 240.225C568.742 236.028 571.89 231.288 575.687 227.074C579.44 222.909 583.707 219.164 587.83 215.369C602.312 202.04 617.175 190.996 636.966 187.054C650.962 184.267 662.251 188.356 673.78 196.154C667.907 182.477 662.456 176.11 649.049 169.168Z" fill="#FEFEFE"></path><path d="M655.727 180.115C655.525 180.023 655.326 179.923 655.118 179.842C653.402 179.174 650.88 178.85 649.16 179.656C647.938 180.228 647.92 180.466 647.442 181.649C648.973 182.138 650.791 182.562 652.402 182.351C654.049 182.136 654.761 181.378 655.727 180.115Z" fill="#F3B09D"></path><path d="M714.49 245.993C712.715 245.146 710.774 244.065 708.8 244.476C708.741 245.891 709.319 246.388 710.038 247.557C710.326 247.749 710.617 247.935 710.911 248.116C712.26 248.95 713.431 249.492 715.013 249.123C715.407 247.703 715.033 247.328 714.49 245.993Z" fill="#F3B09D"></path><path d="M629.292 309.948C628.773 309.813 627.788 309.472 627.214 309.496C625.901 309.549 625.666 309.977 624.871 310.887C624.489 312.668 624.829 313.887 625.288 315.626L626.575 316.045C627.903 315.775 627.985 315.655 628.94 314.676C629.554 312.889 629.554 311.81 629.292 309.948Z" fill="#F3B09D"></path><path d="M598.304 197.955C597.665 197.872 597.069 197.925 596.427 197.959C594.716 199.036 593.142 200.158 591.845 201.733C590.854 202.935 590.917 203.323 591.065 204.862C592.058 204.847 592.978 204.731 593.943 204.501C595.67 204.089 597.69 203.28 598.451 201.523C599.06 200.116 598.689 199.346 598.304 197.955Z" fill="#F3B09D"></path><path d="M650.94 273.854C650.604 273.742 650.092 273.55 649.746 273.533C648.582 273.474 648.378 273.852 647.714 274.659C647.049 277.435 648.077 280.155 649.057 282.737C649.391 282.808 649.726 282.9 650.075 282.861C651.433 282.71 651.657 282.379 652.416 281.369C653 278.595 652.112 276.347 650.94 273.854Z" fill="#F3B09D"></path><path d="M641.795 289.161C641.342 289.061 640.659 288.894 640.211 288.88C638.768 288.837 638.564 289.106 637.661 290.085C636.854 292.677 637.472 295.575 637.745 298.238C637.828 298.295 637.902 298.367 637.993 298.41C639.264 299.015 639.385 299.039 640.638 298.56C642.364 295.785 641.893 292.299 641.795 289.161Z" fill="#F3B09D"></path><path d="M578.01 250.854C577.466 250.789 576.641 250.633 576.076 250.722C574.816 250.92 573.59 251.991 572.779 252.936C571.067 254.932 570.518 257.444 570.75 259.996C571.042 260.022 571.334 260.07 571.627 260.071C572.971 260.077 574.003 259.292 574.9 258.382C575.147 258.136 575.382 257.878 575.603 257.609C575.824 257.339 576.031 257.06 576.225 256.77C576.419 256.48 576.598 256.181 576.762 255.873C576.927 255.566 577.076 255.251 577.208 254.928C577.342 254.606 577.459 254.278 577.559 253.945C577.66 253.611 577.744 253.273 577.811 252.931C577.879 252.589 577.929 252.245 577.962 251.898C577.995 251.551 578.011 251.203 578.01 250.854Z" fill="#F3B09D"></path><path d="M644.025 179.393C640.478 178.777 636.211 177.418 632.781 178.938C631.621 180.259 631.863 180.412 631.955 182.097C635.136 182.341 639.031 183.016 642.184 182.469C643.386 182.261 643.81 181.991 644.47 181L644.025 179.393Z" fill="#F3B09D"></path><path d="M658.963 252.27C657.709 252.054 657.512 252.006 656.345 252.478C655.998 253.073 655.944 253.08 655.767 253.85C655.214 256.25 657.536 261.467 658.71 263.556C660.017 263.345 660.731 263.311 661.737 262.375C662.46 259.012 660.248 255.306 658.963 252.27Z" fill="#F3B09D"></path><path d="M721.541 244.864C720.449 244.572 719.914 244.5 718.819 244.805L718.366 245.68C719.69 248.633 723.69 251.564 725.713 254.418L726.255 255.188L727.726 256.114L728.597 255.907C728.758 255.334 728.823 255.248 728.786 254.562C728.66 252.234 726.959 249.456 725.232 247.99L721.541 244.864Z" fill="#F3B09D"></path><path d="M620.412 183.343C619.644 183.191 618.916 183.026 618.127 183.123C615.713 183.418 611.516 184.916 610.22 187.111C609.415 188.475 609.732 189.246 609.967 190.68C610.189 190.677 610.41 190.68 610.633 190.67C613.112 190.559 618.931 187.767 620.513 185.866C621.036 185.237 620.556 184.109 620.412 183.343Z" fill="#F3B09D"></path><path d="M665.211 232.921C664.2 232.64 664.072 232.637 663.109 232.843L662.728 233.752C663.654 237.15 666.446 240.88 668.196 243.978L670.527 243.306C671.346 242.382 671.703 242.125 671.451 240.781C670.938 238.049 667.231 234.714 665.211 232.921Z" fill="#F3B09D"></path><path d="M591.182 234.29C589.199 233.938 587.942 234.037 586.265 235.243C583.065 237.549 581.418 241.09 580.87 244.903C581.901 245.032 582.293 245.156 583.228 244.569C586.084 242.773 590.296 237.528 591.182 234.29Z" fill="#F3B09D"></path><path d="M606.841 216.785L604.803 216.532C603.037 217.227 601.767 218.227 600.441 219.587C598.621 221.455 596.17 224.518 596.189 227.199L598.03 227.559C599.244 227.075 600.084 226.479 601.075 225.617C603.583 223.432 606.575 220.149 606.841 216.785Z" fill="#F3B09D"></path><path d="M681.152 362.403C680.248 362.536 679.493 362.774 678.627 363.055C676.794 366.402 678.895 373.187 679.601 376.906C679.721 376.981 679.829 377.081 679.962 377.13C680.979 377.506 681.191 377.317 682.033 376.793C683.707 373.273 682.241 366.067 681.152 362.403Z" fill="#F3B09D"></path><path d="M668.302 220.03C667.155 219.773 667.414 219.63 666.267 220.258C665.386 222.849 670.04 231.733 671 234.904C672.594 234.308 673.007 234.372 673.914 232.872C674.197 228.441 671.013 223.365 668.302 220.03Z" fill="#F3B09D"></path><path d="M494.097 270.428C493.305 269.97 492.017 269.283 491.131 269.123C489.784 268.878 489.36 269.319 488.334 270.035L488.385 271.137C490.19 273.501 493.234 274.976 495.571 276.847C497.02 278.085 498.05 278.646 499.971 278.506L500.705 277.619C500.74 276.975 500.784 276.815 500.635 276.117C500.011 273.204 496.435 271.708 494.097 270.428Z" fill="#F3B09D"></path><path d="M580.079 215.082C579.87 214.997 579.662 214.904 579.45 214.827C578.486 214.478 577.757 214.365 576.837 214.849C573.787 216.451 568.425 223.537 567.507 226.837C567.954 227.136 568.784 227.797 569.335 227.97C570.115 228.216 570.54 228.188 571.227 227.797C574.635 225.852 579.019 218.779 580.079 215.082Z" fill="#F3B09D"></path><path d="M508.646 249.894C507.933 249.801 507.525 249.746 506.823 250.003C503.211 251.324 498.372 258.331 496.791 261.663C496.129 263.059 496.496 263.741 496.997 265.127C501.449 262.229 505.573 257.237 509.128 253.253C509.446 251.787 509.126 251.287 508.646 249.894Z" fill="#F3B09D"></path><path d="M666.897 367.191C666.517 367.186 665.958 367.159 665.598 367.252C665.014 367.403 664.298 367.704 664.099 368.313C663.299 370.755 666.622 381.719 667.719 384.664C668.659 384.917 669.205 385.003 670.163 384.814C670.727 384.235 670.977 383.88 671.165 383.07C672.181 378.709 669.116 370.856 666.897 367.191Z" fill="#F3B09D"></path><path d="M698.961 333.025C697.681 332.574 697.085 332.214 695.73 332.455C693.669 335.51 696.947 340.766 697.677 344.072C698.056 345.787 698.205 347.595 698.391 349.339C699.245 349.854 699.985 350.159 700.942 350.442C701.759 349.674 701.565 350.049 701.894 349.036C703.422 344.33 701.21 337.193 698.961 333.025Z" fill="#F3B09D"></path><path d="M525.086 231.443L522.884 231.019C518.204 232.308 509.459 244.096 506.608 248.318C507.552 248.698 508.513 249.034 509.469 249.381C510.108 249.241 510.554 249.051 511.078 248.651C515.143 245.535 524.449 236.409 525.086 231.443Z" fill="#F3B09D"></path><path d="M719.016 253.019C717.933 252.704 717.977 252.595 716.807 252.916C716.536 256.402 724.056 264.106 725.951 268.301C727.753 272.29 728.167 276.285 728.977 280.542C730.316 280.219 730.999 280.045 732.064 279.104C733.25 276.217 730.271 268.901 729.778 265.366C726.449 261.103 723.052 256.632 719.016 253.019Z" fill="#F3B09D"></path><path d="M714.303 260.197C713.487 260.565 713.095 260.917 712.442 261.511C711.948 264.737 716.387 268.77 717.953 271.647C722.227 279.492 722.916 288.909 724.375 297.54C725.061 297.23 725.643 296.853 726.277 296.448C726.905 295.016 727.172 293.776 727.291 292.21C728.14 280.993 721.434 268.421 714.303 260.197Z" fill="#F3B09D"></path><path d="M726.031 391.444C720.389 389.645 709.617 389.784 703.193 388.782C698.757 388.09 691.012 384.523 686.988 385.659C685.888 386.531 685.791 387.24 685.428 388.537C691.694 392.078 716.647 396.641 723.418 394.326C725.026 393.776 725.302 392.832 726.031 391.444Z" fill="#F3B09D"></path></g><defs><clipPath id="clip0_53_1069"><rect width="1024" height="1024" fill="white"></rect></clipPath></defs></svg>