<svg xmlns="http://www.w3.org/2000/svg" width="1024" height="1024" viewBox="0 0 1024 1024" fill="none"><path d="M297.784 627.951L301.827 628.101C301.403 629.79 300.825 631.817 299.344 632.834L298.524 632.589C297.691 631.016 297.771 629.701 297.784 627.951Z" fill="#F6B99C"></path><path d="M244.941 451.913C246.371 451.911 248.093 451.88 249.362 452.637C251.056 453.649 251.377 455.557 251.804 457.318C250.338 457.566 248.857 457.63 247.529 456.822C245.704 455.712 245.308 453.863 244.941 451.913Z" fill="#F6B99C"></path><path d="M408.727 642.42C409.925 642.522 411.249 642.973 412.119 643.807L412.049 645.098C410.279 647.612 408.468 647.871 405.647 648.483C404.01 648.55 402.644 648.606 401.31 647.599L401.495 646.636C403.625 644.585 406.057 643.625 408.727 642.42Z" fill="#F3B09D"></path><path d="M148.459 604.917C149.233 605.73 149.176 605.777 149.263 606.91C147.027 610.701 140.322 613.966 136.333 615.605C135.519 614.651 135.427 614.601 135.33 613.363C137.223 610.147 145.142 606.942 148.459 604.917Z" fill="#F3B09D"></path><path d="M505.034 666.51C506.85 666.59 508.88 666.619 510.536 667.471C511.773 668.107 511.992 668.612 512.401 669.892C512.017 671.564 511.162 672.263 509.967 673.385C507.978 673.631 506.371 673.871 504.629 672.66C503.303 671.737 503.115 671.027 502.885 669.543C503.422 668.02 503.779 667.525 505.034 666.51Z" fill="#F3B09D"></path><path d="M390.263 653.278C390.999 653.771 391.434 654.362 391.763 655.192C392.645 657.421 392.235 660.274 391.335 662.425C390.417 664.618 389.514 665.374 387.313 666.223C386.615 665.543 385.552 664.661 385.265 663.706C384.343 660.64 388.648 655.597 390.263 653.278Z" fill="#F3B09D"></path><path d="M145.193 507.755C146.349 508.19 146.995 508.611 147.739 509.635C149.974 512.713 157.198 522.839 156.726 526.276C152.079 524.723 148.509 518.144 146.34 513.853C145.239 511.676 144.404 510.176 145.193 507.755Z" fill="#F3B09D"></path><path d="M401.538 652.354C401.762 652.5 401.991 652.639 402.21 652.794C404.659 654.52 407.636 660.006 407.704 662.987C407.742 664.602 406.712 665.586 405.717 666.72C404.98 666.481 404.283 666.241 403.683 665.722C401.342 663.694 400.254 659.782 399.92 656.839C399.676 654.687 400.24 653.934 401.538 652.354Z" fill="#F3B09D"></path><path d="M235.63 601.472C239.065 601.508 243.011 604.402 245.909 606.225C248.931 608.126 252.839 609.923 253.658 613.571C249.333 613.688 246.111 611.34 242.667 608.989C240.03 607.188 236.231 604.723 235.63 601.472Z" fill="#F3B09D"></path><path d="M381.958 650.173C383.156 650.159 384.262 650.163 385.429 650.475C386.554 650.776 386.147 650.476 386.72 651.471C386.559 652.042 386.566 652.169 386.175 652.721C384.34 655.309 379.974 656.235 377.113 656.981C376.793 657.033 376.477 657.116 376.154 657.136C374.955 657.212 373.886 656.617 373.129 655.716C372.273 654.697 372.229 654.313 372.417 653.11C374.785 650.697 378.772 650.622 381.958 650.173Z" fill="#F3B09D"></path><path d="M508.011 640.802C509.904 641.191 511.088 641.909 512.397 643.352C513.849 644.954 515.396 647.481 514.935 649.773C514.628 651.302 513.944 651.56 512.798 652.432C510.953 652.036 510.168 651.516 508.834 650.197C507.072 648.454 505.456 646.436 505.684 643.791C505.8 642.437 507.046 641.598 508.011 640.802Z" fill="#F3B09D"></path><path d="M246.453 508.775C247.679 509.063 247.131 508.789 248.098 509.595C248.073 510.144 248.105 510.176 247.884 510.78C246.14 515.552 235.221 523.806 230.719 526.232C229.869 526.202 229.484 526.091 228.761 525.643C229.239 523.744 243.903 510.798 246.453 508.775Z" fill="#F3B09D"></path><path d="M383.128 628.984C384.205 628.928 385.111 628.953 386.174 629.141C387.72 630.52 389.056 632.298 390.041 634.127C391.368 636.592 392.771 639.947 391.923 642.713C391.064 642.694 390.364 642.71 389.544 642.394C386.833 641.349 384.135 637.655 383.041 635.086C382.064 632.792 382.267 631.247 383.128 628.984Z" fill="#F3B09D"></path><path d="M403.446 630.679C404.147 631.028 404.368 631.025 404.806 631.73C409.131 638.685 399.001 642.67 398.036 647.46L398.474 647.983L400.23 647.569L400.467 648.024L399.235 648.431C398.615 649.589 400.004 650.326 399.639 652.025C398.459 651.924 397.213 651.877 396.074 651.541C392.8 650.576 394.423 647.52 392.983 645.156C392.849 644.935 392.698 644.725 392.556 644.509L392.918 643.703L394.979 643.386C401.609 642.368 398.553 635.633 403.446 630.679Z" fill="#F3B09D"></path><path d="M340.779 455.493C340.883 455.495 340.987 455.48 341.089 455.498C342.655 455.764 342.831 456.13 343.872 457.288C344.152 458.67 344.145 459.216 343.574 460.511C338.501 464.129 303.531 474.972 295.358 477.801L293.749 477.924C292.656 477.353 292.554 477.27 291.949 476.197L292.29 475.235C296.317 471.205 333.734 457.866 340.779 455.493Z" fill="#F3B09D"></path><path d="M349.727 279.165C350.026 279.253 350.328 279.334 350.623 279.434C354.16 280.636 390.49 316.64 392.489 320.97C392.549 322.687 391.677 323.927 390.878 325.379C390.635 325.262 390.388 325.153 390.149 325.03C386.258 323.023 349.211 283.776 348.594 281.225C348.423 280.518 349.328 279.718 349.727 279.165Z" fill="#F3B09D"></path><path d="M258.431 443.798C258.4 441.443 258.249 438.934 258.573 436.601C258.809 434.9 259.417 434.065 260.726 433.019L261.638 433.125C261.757 433.284 261.894 433.431 261.994 433.603C264.66 438.162 261.935 446.932 260.53 451.523C263.296 449.43 266.149 446.997 269.162 445.285C270.387 444.59 271.477 444.099 272.857 444.506C272.474 447.128 269.094 448.95 267.159 450.55C265.936 451.561 265.436 452.302 265.273 453.867C266.903 456.27 270.843 455.863 273.194 457.274C274.084 457.808 274.099 458.137 274.371 459.069C273.874 460.276 273.795 460.436 272.741 461.192C270.682 461.179 268.276 459.277 266.476 458.27L265.888 458.755C266.912 460.89 268.074 462.57 267.222 464.961C266.833 466.054 266.847 465.915 266.049 466.55C264.868 466.393 264.357 466.052 263.68 465.026C263.305 464.458 263.116 464.042 262.822 463.451C262.368 462.243 261.922 461.02 261.396 459.841C260.753 458.399 260.087 457.748 258.647 457.171C256.62 458.657 256.054 462.533 254.373 464.611C253.047 466.252 251.149 467.623 248.987 467.773C248.13 467.832 247.926 467.358 247.318 466.831C246.265 459.146 256.816 457.937 257.548 451.762C257.925 448.586 254.725 446.43 252.896 444.297C251.49 442.658 249.756 440.422 249.971 438.141L250.695 437.592C254.353 438.046 256.23 441.151 258.431 443.798Z" fill="#F3B09D"></path><path d="M664.639 254.742C665.593 255.384 666.152 255.794 666.726 256.8C661.163 267.43 653.586 277.542 646.811 287.43C637.572 301.162 628.168 314.781 618.6 328.286L617.309 327.873C616.88 327.378 616.315 326.991 616.282 326.297C616.047 321.389 657.928 261.063 664.639 254.742Z" fill="#F3B09D"></path><path d="M128.681 547.972C132.336 549.55 135.272 552.775 138.607 554.952C141.526 556.858 145.181 557.977 148.286 559.663L148.092 560.446C147.442 561.046 146.904 561.432 146.091 561.806C143.861 562.834 141.453 563.379 139.246 564.402C136.615 565.622 134.198 567.517 131.654 568.936C126.344 571.896 122.8 567.189 117.593 565.755C117.363 565.692 117.131 565.633 116.9 565.572C110.526 564.192 96.3153 564.627 92.2436 563.111C91.2116 562.726 91.1701 562.495 90.7642 561.552C91.3158 560.753 91.5564 560.36 92.5022 559.978C94.5544 559.151 97.3277 559.107 99.5199 558.684C103.886 557.843 108.285 556.675 112.514 555.302C118.171 553.464 123.382 550.63 128.681 547.972Z" fill="#F3B09D"></path><path d="M127.401 554.366C132.047 554.146 137.4 557.037 141.287 559.449C137.774 561.011 134.506 562.705 131.223 564.706C129.103 565.882 121.746 560.643 117.962 559.661C121.242 558.102 124.301 556.253 127.401 554.366Z" fill="#FEFEFE"></path><path d="M254.702 547.317C259.924 548.055 267.683 554.961 274.83 556.559C280.349 557.793 290.09 555.049 294.372 557.289L294.411 557.965C292.89 559.416 272.711 564.916 269.096 565.904C265.219 566.93 261.551 568.022 257.868 569.617C250.927 562.771 238.253 563.571 232.976 558.354C232.28 557.666 232.508 557.433 232.508 556.515C235.781 552.504 241.416 555.44 245.583 554.353C248.347 553.632 252.532 549.151 254.702 547.317Z" fill="#F3B09D"></path><path d="M254.38 553.09C256.93 553.578 259.557 555.529 262.041 556.548C265.228 557.855 268.556 558.819 271.787 560.027C268.042 561.298 264.307 562.048 260.413 562.698C260.173 562.89 259.806 563.2 259.54 563.334C258.077 564.073 246.772 558.615 244.532 557.639C247.785 556.032 251.027 554.477 254.38 553.09Z" fill="#FEFEFE"></path><path d="M771.383 434.045C772.203 433.982 773.495 433.797 774.278 434.025C775.503 434.382 775.744 434.884 776.371 435.885C776.157 437.171 775.869 437.759 774.836 438.61C770.327 442.321 762.198 444.281 756.607 445.957C727.833 454.583 698.967 458.611 668.877 456.906C666.981 456.753 665.289 456.627 663.648 455.614L663.495 454.725C665.932 451.97 684.386 452.817 688.504 452.69C716.646 451.822 745.193 443.946 771.383 434.045Z" fill="#F3B09D"></path><path d="M714.35 208.148C715.348 208.357 715.735 208.587 716.474 209.286C718.458 214.035 717.155 221.019 716.937 226.144C719.291 224.671 721.714 222.956 724.223 221.774C726.652 220.629 729.374 219.734 732.021 220.583C732.388 221.131 732.752 221.315 732.542 222.016C731.437 225.701 723.827 228.559 720.509 230.181C723.894 234.01 728.401 238.276 730.435 242.986C731.02 244.341 731.348 245.55 730.803 246.982L729.686 247.468C724.329 246.557 719.156 239.305 715.639 235.417C714.016 241.405 714.351 248.538 710.587 253.612C709.623 253.296 708.983 253.009 708.41 252.125C706.101 248.564 708.342 239.934 709.241 236.054C705.259 237.512 699.211 241.184 695.037 241.334C693.75 241.381 693.595 241.071 692.724 240.237L692.872 239.152C696.348 234.6 704.337 232.414 709.141 229.103L709.727 228.694C707.02 224.765 699.258 218.601 698.132 214.509C697.816 213.359 698.077 212.317 698.63 211.325L699.68 211.125C703.886 212.323 708.73 218.454 711.793 221.515C712.149 217.057 713.009 212.412 714.35 208.148Z" fill="#F3B09D"></path><path d="M297.784 627.951C302.098 605.746 321.827 576.998 336.584 559.797C346.474 548.269 357.214 537.863 368.545 527.781C373.544 523.332 378.56 518.371 384.1 514.62C385.427 513.722 386.661 513.036 388.173 512.512L388.941 512.732C389.032 514.431 387.859 516.378 386.724 517.593C384.627 519.836 381.595 521.438 379.226 523.421C372.924 528.694 366.816 534.458 360.889 540.145C338.038 562.067 312.401 598.489 301.827 628.101L297.784 627.951Z" fill="#F3B09D"></path><path d="M357.898 166.94C358.436 167.07 358.92 167.397 359.407 167.657L359.604 168.594C358.052 170.713 354.133 171.823 351.836 173.075C347.641 175.363 344.683 179.969 343.44 184.486C341.875 190.176 342.525 196.401 345.563 201.494C350.357 209.529 361.552 212.798 370.509 211.919C374.594 211.518 379.592 209.323 383.671 210.439C379.88 214.879 364.702 213.031 356.525 224.018C349.172 233.899 353.512 247.102 347.153 256.731L346.325 256.755C344.34 253.635 344.792 239.809 340.425 232.665C336.257 225.847 327.248 223.566 319.675 225.116C317.055 225.652 313.163 227.59 310.586 226.939C310.267 223.04 328.597 221.373 333.982 212.621C336.49 208.546 336.099 204.015 335.078 199.585C328.418 186.663 313.591 192.604 303.521 177.857C308.146 179.687 311.563 183.385 315.956 185.646C323.699 189.633 331.654 187.858 336.767 196.88C338.82 200.502 339.498 205.202 338.327 209.218C336.565 215.256 331.631 219.365 326.356 222.314C330.554 222.937 334.784 223.292 338.427 225.678C344.541 229.684 346.042 237.845 347.516 244.46C347.857 240.056 348.18 235.701 349.579 231.481C352.271 223.363 357.868 217.983 365.435 214.267C361.614 213.569 357.596 213.107 353.954 211.718C353.612 211.589 353.274 211.451 352.939 211.305C352.604 211.159 352.273 211.005 351.946 210.842C351.619 210.679 351.296 210.509 350.977 210.33C350.658 210.151 350.344 209.965 350.035 209.77C349.726 209.576 349.421 209.374 349.122 209.165C348.823 208.955 348.529 208.738 348.241 208.514C347.952 208.29 347.67 208.059 347.393 207.821C347.116 207.582 346.845 207.337 346.58 207.086C346.315 206.834 346.057 206.576 345.805 206.311C345.553 206.046 345.308 205.776 345.069 205.499C344.831 205.222 344.6 204.94 344.375 204.651C344.151 204.363 343.934 204.069 343.724 203.77C343.514 203.471 343.312 203.167 343.118 202.858C342.923 202.549 342.736 202.235 342.557 201.916C342.378 201.597 342.208 201.275 342.045 200.948C341.882 200.621 341.728 200.29 341.581 199.955C339.118 194.28 338.964 187.329 341.257 181.573C344.346 173.82 350.616 170.038 357.898 166.94Z" fill="#F3B09D"></path><path d="M190.676 618.794C191.858 619.737 193.339 626.704 195.069 629.484C196.411 631.642 198.659 633.512 200.482 635.276C196.387 648.177 195.286 661.917 193.049 675.24C192.605 677.884 192.011 682.915 189.741 684.525L188.847 684.321L188.102 682.765C188.116 668.551 181.715 650.399 174.937 638.009C177.805 634.437 181.534 631.632 184.496 628.146C186.92 625.293 188.236 621.7 190.676 618.794Z" fill="#F3B09D"></path><path d="M189.485 629.403C191.797 631.478 193.368 634.802 194.861 637.488C192.589 645.993 192.864 654.728 190.826 663.1L190.383 662.791C187.932 654.931 185.14 647.194 182.009 639.58C184.067 635.873 186.767 632.636 189.485 629.403Z" fill="#FEFEFE"></path><path d="M615.605 520.331C616.314 520.3 616.797 520.273 617.485 520.477C623.282 522.193 631.017 527.905 636.262 531.261C671.705 553.945 695.866 582.411 714.595 619.945C717.388 625.541 725.972 641.565 724.04 647.342C720.268 645.531 718.056 637.959 716.365 634.233C702.538 603.769 683.83 576.408 658.605 554.266C653.089 549.424 647.398 544.742 641.337 540.594C636.874 537.54 616.561 526.305 615.328 524.023C615.086 522.503 615.048 521.826 615.605 520.331Z" fill="#F3B09D"></path><path d="M192.401 428.661C193.394 428.857 193.806 429.061 194.56 429.736C197.804 436.491 203.769 478.373 203.143 485.649C202.822 489.37 197.088 514.279 195.26 515.782L193.87 515.279C192.923 508.198 185.338 490 181.608 484.044C182.242 476.691 185.01 469.048 186.441 461.742C188.049 453.538 189.718 435.236 192.401 428.661Z" fill="#F3B09D"></path><path d="M193.593 448.814C193.741 448.944 193.915 449.049 194.038 449.203C197.36 453.359 197.138 479.209 196.603 485.117C196.324 488.2 196.106 497.801 193.987 499.566L193.033 498.462C190.714 493.995 187.264 486.928 186.906 481.948C186.558 477.106 192.038 453.93 193.593 448.814Z" fill="#FEFEFE"></path><path d="M609.887 646.013C609.796 643.771 609.544 641.54 609.275 639.314C610.578 638.194 611.739 638.891 613.389 638.408C612.662 634.79 607.256 620.345 607.74 618.417C607.907 617.756 608.35 617.712 608.892 617.408C612.521 619.336 616.324 639.783 618.984 643.929C620.873 646.875 627.604 650.055 630.685 651.953C635.614 649.415 642.776 646.241 648.41 647.212C649.393 647.917 649.402 647.816 649.6 648.997C647.491 651.949 640.112 652.175 636.668 653.344C630.501 655.438 629.726 660.658 627.299 665.889C627.336 666.118 627.37 666.347 627.409 666.576C628.776 674.503 633.553 681.554 633.933 689.679L633.525 689.989C632.651 689.233 632.848 689.688 632.759 688.711L632.09 688.519C628.579 683.388 626.187 676.568 624.156 670.722C622.985 673.047 621.447 673.862 619.262 675.154C619.809 680.712 623.448 688.013 622.355 693.403L621.612 693.434C618.796 690.509 614.889 675.55 613.829 670.94C609.762 668.583 605.92 666.025 601.529 664.286C596.136 664.842 588.053 667.613 582.842 665.79L582.952 665.089C587.798 661.766 594.934 660.702 600.58 659.223C601.637 653.099 605.114 646.659 603.403 640.401C602.414 636.786 600.598 633.167 600.105 629.459C599.85 627.547 600.696 626.653 601.781 625.207C602.004 625.31 602.292 625.327 602.449 625.516C603.274 626.507 603.916 630.31 604.34 631.76C605.809 636.779 607.375 641.401 609.887 646.013Z" fill="#F3B09D"></path><path d="M608.894 646.008C616.833 645.996 621.046 650.536 626.925 655.198C625.626 659.467 624.489 664.004 621.041 667.061L615.615 668.198C611.881 665.718 607.879 663.727 603.905 661.67C605.215 656.353 607.124 651.186 608.894 646.008Z" fill="#FEFEFE"></path><path d="M189.385 530.672C194.112 530.385 200.802 529.834 204.981 532.446C206.104 533.147 206.531 533.699 206.891 534.943C206.712 535.244 206.644 535.649 206.355 535.847C205.828 536.208 204.142 536.389 203.453 536.562C197.296 538.104 192.212 539.901 187.913 544.893C184.133 549.281 182.158 554.879 182.691 560.676C183.465 569.091 189.002 575.817 195.139 581.104C200.125 582.022 205.504 582.892 210.494 581.557C210.737 581.493 210.977 581.417 211.219 581.35C215.284 580.222 217.672 574.786 221.622 574.596C222.637 575.594 223.214 576.4 223.343 577.839C223.906 584.09 219.148 590.831 215.337 595.308C210.743 599.53 205.669 602.298 199.518 603.455C190.234 605.2 179.112 603.463 171.344 597.881C163.708 592.393 159.332 582.186 157.957 573.098C156.434 563.034 158.204 552.37 164.399 544.107C170.644 535.779 179.33 532.099 189.385 530.672Z" fill="#F3B09D"></path><path d="M187.763 536.14L188.707 536.105L189.001 536.547C186.223 539.376 182.571 542.639 180.526 545.999C177.387 551.154 176.994 558.565 178.226 564.279C179.841 571.769 184.536 580.182 191.186 584.258C198.525 588.756 207.876 587.46 215.83 585.719C212.367 591.59 208.486 594.444 202.327 597.019C201.619 597.275 200.915 597.477 200.182 597.648C191.829 599.599 182.271 598.553 174.973 593.835C168.5 589.65 164.248 582.014 162.847 574.528C161.228 565.876 162.493 555.063 167.693 547.795C172.35 541.288 179.977 537.341 187.763 536.14Z" fill="#FEFEFE"></path><path d="M250.513 261.185C263.908 259.299 279.957 264.779 290.901 272.274C305.239 282.092 313.899 297.773 316.903 314.691C319.558 329.65 317.336 344.041 308.549 356.504C307.911 357.423 307.251 358.327 306.568 359.214C305.885 360.101 305.181 360.971 304.456 361.824C303.731 362.677 302.985 363.511 302.219 364.327C301.452 365.142 300.666 365.939 299.861 366.716C299.055 367.493 298.231 368.25 297.388 368.987C296.545 369.724 295.685 370.439 294.807 371.134C293.929 371.828 293.034 372.5 292.123 373.151C291.212 373.801 290.286 374.429 289.344 375.034C288.402 375.639 287.446 376.22 286.475 376.778C285.505 377.335 284.521 377.869 283.524 378.378C282.527 378.887 281.519 379.372 280.498 379.832C279.478 380.292 278.447 380.726 277.405 381.135C276.363 381.544 275.311 381.928 274.25 382.285C273.189 382.642 272.121 382.973 271.044 383.278C269.967 383.583 268.883 383.861 267.792 384.112C266.701 384.364 265.605 384.589 264.503 384.786C249.407 386.436 235.744 382.993 223.619 373.713C209.121 362.617 200.393 346.345 198.082 328.334C196.106 312.93 198.359 297.314 208.125 284.819C218.97 270.942 233.159 263.331 250.513 261.185Z" fill="#F3B09D"></path><path d="M250.207 265.669C261.864 264.277 273.775 267.845 283.804 273.623C298.737 282.225 307.455 296.281 311.778 312.69C315.324 326.147 314.776 338.629 307.642 350.746C298.418 366.412 283.293 375.869 265.912 380.352C265.029 380.555 264.139 380.726 263.244 380.867C250.995 382.775 237.77 378.513 227.932 371.262C227.071 370.63 226.226 369.977 225.398 369.302C224.569 368.627 223.758 367.933 222.964 367.218C222.171 366.503 221.395 365.768 220.638 365.015C219.881 364.261 219.144 363.489 218.425 362.699C217.706 361.908 217.008 361.1 216.33 360.275C215.652 359.45 214.995 358.608 214.359 357.749C213.723 356.891 213.109 356.018 212.516 355.129C211.923 354.24 211.353 353.336 210.806 352.419C210.259 351.502 209.735 350.571 209.234 349.628C208.733 348.684 208.256 347.728 207.803 346.761C207.35 345.794 206.921 344.816 206.517 343.827C206.112 342.838 205.733 341.84 205.379 340.832C205.024 339.825 204.695 338.809 204.391 337.785C204.088 336.76 203.81 335.729 203.558 334.691C203.305 333.653 203.079 332.609 202.879 331.56C202.679 330.511 202.505 329.457 202.358 328.399C200.247 313.914 202.896 299.189 211.896 287.391C221.319 275.037 234.976 267.81 250.207 265.669Z" fill="#FEFEFE"></path><path d="M234.01 331.072C238.881 330.832 243.061 331.719 247.34 334.124C253.091 337.357 259.083 343.001 260.766 349.524C261.415 352.041 261.507 355.048 259.998 357.29C259.789 357.596 259.567 357.891 259.33 358.176C259.093 358.461 258.843 358.733 258.58 358.994C258.317 359.255 258.043 359.502 257.756 359.737C257.47 359.972 257.173 360.192 256.866 360.399C256.558 360.605 256.241 360.796 255.916 360.972C255.59 361.149 255.257 361.309 254.916 361.453C254.575 361.598 254.228 361.726 253.875 361.837C253.522 361.948 253.164 362.043 252.802 362.12C251.453 362.09 250.11 361.979 248.774 361.786C247.439 361.593 246.12 361.319 244.817 360.966C243.514 360.613 242.238 360.182 240.988 359.674C239.737 359.165 238.522 358.583 237.343 357.927C231.573 354.757 225.94 349.129 224.27 342.614C223.704 340.404 223.791 338.183 225.038 336.217C227.091 332.981 230.499 331.928 234.01 331.072Z" fill="#F3B09D"></path><path d="M231.4 334.026C233.121 333.942 235.118 333.713 236.808 334.078C242.761 335.366 251.513 342.563 254.706 347.733C255.682 349.312 256.36 351.21 255.66 353.044C254.905 355.023 253.124 355.406 251.312 355.992C249.445 356.425 247.55 356.61 245.639 356.35C239.407 355.501 233.383 351.767 229.641 346.747C228.026 344.58 226.753 342.077 227.246 339.302C227.718 336.643 229.261 335.461 231.4 334.026Z" fill="#FEFEFE"></path><path d="M268.465 282.549C270.896 282.435 272.929 282.453 275.214 283.373C282.407 286.267 288.361 293.786 291.228 300.841C292.909 304.979 293.929 309.807 291.991 314.036C290.592 317.091 288.496 318.029 285.485 319.209C282.553 319.676 279.571 319.738 276.714 318.827C270.839 316.954 266.522 312.205 263.806 306.824C261.243 301.748 259.897 295.174 261.905 289.683C263.187 286.175 265.118 284.102 268.465 282.549Z" fill="#F3B09D"></path><path d="M268.432 287.353C268.982 287.395 269.535 287.429 270.082 287.508C274.857 288.196 279.199 292.724 281.968 296.464C284.798 300.288 288.592 306.292 287.62 311.212C287.185 313.412 285.928 314.329 284.142 315.444C282.946 315.529 281.709 315.593 280.512 315.532C276.863 315.347 273.191 312.492 270.855 309.866C267.308 305.878 263.998 299.68 264.571 294.176C264.889 291.119 266.099 289.269 268.432 287.353Z" fill="#FEFEFE"></path><path d="M779.887 274.693C780.34 274.625 780.795 274.567 781.251 274.531C797.57 273.238 814.149 277.961 826.455 288.898C839.536 300.524 847.001 317.14 848.019 334.488C849.07 352.402 843.85 368.714 831.806 382.106C821.621 393.432 807.922 400.655 792.625 401.491C776.354 402.212 761.801 398.152 748.697 388.275C735.236 378.128 725.675 362.698 723.402 345.931C721.248 330.039 725.791 312.304 735.619 299.599C747.34 284.448 761.141 277.015 779.887 274.693Z" fill="#F3B09D"></path><path d="M780.746 279.687C780.889 279.662 781.031 279.627 781.177 279.612C794.715 278.192 809.069 281.807 820.097 289.825C832.792 299.055 840.674 314.234 842.975 329.545C845.34 345.279 841.691 360.793 832.191 373.601C822.31 386.923 809.376 394.113 793.125 396.515C778.229 397.259 764.453 393.33 752.484 384.287C739.956 374.822 730.344 359.592 728.324 343.908C726.474 329.538 731.077 313.39 739.958 302.007C750.577 288.395 763.811 281.747 780.746 279.687Z" fill="#FEFEFE"></path><path d="M746.561 336.571C747.896 336.741 749.29 336.893 750.481 337.567C754.589 339.892 761.954 351.985 763.007 356.596C763.349 358.091 763.142 358.884 762.329 360.146C761.717 360.385 761.612 360.461 760.876 360.553C757.951 360.917 756.04 359.297 754.111 357.4C752.911 355.799 751.514 354.375 750.148 352.917C748.48 353.85 747.033 355.09 745.497 356.219C744.042 357.289 742.672 358.326 740.781 358.044C739.792 357.331 739.334 356.752 738.974 355.564C737.643 351.172 738.863 344.135 741.093 340.232C742.42 337.91 744.066 337.225 746.561 336.571Z" fill="#F3B09D"></path><path d="M772.821 299.683C773.807 299.556 774.652 299.656 775.644 299.731C776.636 300.333 777.849 301.46 778.279 302.585C778.737 303.784 778.475 304.134 777.962 305.194C774.603 307.945 769.557 307.736 765.412 308.179C765.656 313.708 767.463 320.268 766.654 325.686C766.402 327.376 765.752 328.11 764.428 329.104C763.132 329.445 762.264 329.591 761.031 328.909C759.764 328.208 759.544 327.152 759.171 325.878C758.16 320.525 757.485 315.191 756.178 309.886C753.965 309.992 751.191 310.403 749.074 309.626C747.627 309.095 746.918 308.434 746.35 307.032C746.559 306.373 746.576 306.212 746.958 305.558C749.464 301.268 767.6 300.445 772.821 299.683Z" fill="#F3B09D"></path><path d="M809.717 291.556C811.359 291.393 812.717 291.294 814.342 291.622C815.191 292.328 815.576 292.532 815.819 293.668C816.145 295.189 816.617 315.055 816.401 316.825C816.288 317.748 815.996 318.437 815.429 319.181C814.679 320.165 814.032 320.41 812.86 320.552C812.349 320.25 812.283 320.257 811.836 319.739C808.766 316.178 809.959 301.115 810.079 296.378C805.659 299.281 801.124 301.818 796.297 303.98L803.899 305.473L804.913 306.093C806.497 309.138 806.778 319.286 806.023 322.698C805.696 324.177 805.182 324.854 803.903 325.609C802.598 325.562 801.211 324.724 800.431 323.658C798.78 321.401 800.397 312.994 800.601 309.972C797.107 308.363 792.867 307.774 789.763 305.484C789.472 304.808 789.099 304.422 789.338 303.676C790.579 299.804 805.581 293.474 809.717 291.556Z" fill="#F3B09D"></path><path d="M816.065 333.749C819.345 334.093 821.094 336.066 823.455 338.168C826.773 338.492 830.42 338.574 833.557 339.761C835.706 340.575 837.855 341.747 838.669 344.048C839.04 345.095 838.678 346.068 838.105 346.953C835.513 350.952 829.385 351.811 825.114 352.549L824.49 352.692C822.83 354.599 824.246 357.689 822.882 359.836C822.273 360.796 821.553 361.13 820.494 361.38C818.974 361.74 817.424 361.371 816.152 360.49C813.893 358.926 813.163 355.496 812.811 352.978C811.995 347.148 812.355 338.487 816.065 333.749Z" fill="#F3B09D"></path><path d="M784.579 350.357C785.163 350.44 785.342 350.448 785.865 350.573C788.498 351.203 800.297 361.183 801.616 363.705C802.35 365.11 802.752 367.018 802.288 368.541L801.373 368.993C795.321 367.641 791.189 361.245 786.669 357.412L786.13 356.961L786.406 357.999C787.12 360.724 788.185 363.311 786.647 365.946C784.1 367.97 781.082 367.589 778 367.583C781.145 370.996 783.559 374.233 788.266 375.354C790.564 374.54 792.114 372.495 794.176 371.733C795.368 371.292 795.875 371.658 796.972 372.101C797.758 372.965 798.183 373.619 798.325 374.812C798.522 376.467 797.94 378.206 796.907 379.497C795.575 381.164 793.635 382.058 791.547 382.311C786.118 382.969 779.726 379.577 775.617 376.168C773.182 374.147 770.371 371.008 770.236 367.657C770.18 366.259 770.649 364.983 771.626 363.979C774.098 361.441 778.067 361.678 781.34 361.531C781.291 360.017 781.204 358.469 781.275 356.956C781.419 353.904 782.404 352.417 784.579 350.357Z" fill="#F3B09D"></path><path d="M843.048 449.853L845.171 450.577C848.505 453.883 849.805 461.849 851.584 466.294C857.9 468.558 864.221 470.293 870.226 473.4C889.647 483.449 902.719 501.658 909.322 522.196C913.34 523.926 919.579 525.733 922.215 529.318C922.327 530.168 922.544 530.502 922.084 531.292C920.23 534.477 913.904 536.34 910.572 537.489C909.707 550.042 907.869 561.1 902.049 572.465C890.753 594.525 873.827 609.553 850.259 617.182C846.734 621.219 837.266 636.263 832.979 637.27C829.617 632.521 829.124 626.439 827.743 620.896C816.911 617.254 807.411 614.259 798.064 607.325C777.359 591.965 769.001 570.214 765.281 545.537C762.204 544.241 753.622 541.565 751.931 539.02C752.497 534.101 759.391 531.428 761.8 527.305C764.056 523.443 766.535 519.52 768.462 515.492C773.936 504.048 776.526 495.56 785.913 486.216C799.913 472.282 814.379 468.336 833.579 468.461C836.341 461.976 839.431 455.891 843.048 449.853Z" fill="#F3B09D"></path><path d="M851.258 512.208C854.79 511.867 858.25 511.977 861.785 512.186C863.098 513.784 864.251 515.54 865.451 517.226C860.7 515.766 855.98 513.819 851.258 512.208Z" fill="#FEFEFE"></path><path d="M812.945 585.26C814.979 586.292 816.644 586.514 818.877 586.806C819.894 586.939 821.851 586.938 822.465 587.749L820.891 588.614C820.723 588.656 820.555 588.701 820.386 588.74C820.104 588.805 819.821 588.862 819.539 588.925C816.576 589.594 813.663 589.597 810.638 589.659L812.945 585.26Z" fill="#FEFEFE"></path><path d="M850.211 500.902C854.568 502.248 858.23 503.89 862.051 506.389C858.815 506.395 855.58 506.445 852.345 506.539L850.211 500.902Z" fill="#FEFEFE"></path><path d="M865.724 568.735C866.195 569.107 866.23 569.109 866.701 569.633C868.205 571.303 872.099 576.897 872.018 579.027L871.181 579.096L862.858 573.219L865.724 568.735Z" fill="#FEFEFE"></path><path d="M860.569 577.059C862.94 578.385 865.202 580.065 867.461 581.582L860.149 583.372L854.42 584.814L860.569 577.059Z" fill="#FEFEFE"></path><path d="M769.027 531.03C769.056 531.049 769.087 531.063 769.113 531.086C770.404 532.195 770.636 535.31 770.98 536.959C768.095 537.151 764.693 537.726 761.886 537.072C760.635 536.719 760.072 536.751 759.165 535.748C760.625 533.136 766.302 531.959 769.027 531.03Z" fill="#FEFEFE"></path><path d="M843.283 461.892C845.131 464.325 848.22 472.624 847.923 475.64L846.95 475.053C844.107 473.289 841.713 471.042 839.202 468.852C840.449 466.457 841.859 464.184 843.283 461.892Z" fill="#FEFEFE"></path><path d="M795.077 563.303C795.319 563.445 795.575 563.565 795.802 563.729C801.72 568.023 804.519 575.362 805.857 582.204C800.763 579.293 796.635 568.735 795.077 563.303Z" fill="#FEFEFE"></path><path d="M895.422 520.861C897.666 521.566 899.93 523.033 901.983 524.18C904.439 525.552 907.82 527.232 908.624 530.053L907.711 531.041L903.704 533.773C900.981 529.457 898.635 524.841 895.422 520.861Z" fill="#FEFEFE"></path><path d="M816.263 502.122C815.989 504.191 808.418 511.309 806.651 513.245C803.551 514.012 800.515 515.037 797.472 516L797.404 515.62C800.461 510.31 810.731 504.398 816.263 502.122Z" fill="#FEFEFE"></path><path d="M786.835 524.528C787.057 528.528 786.27 532.706 786.379 536.804C783.168 536.477 779.872 536.465 776.645 536.326C776.479 534.221 776.297 532.118 776.099 530.017C779.577 527.946 783.166 526.233 786.835 524.528Z" fill="#FEFEFE"></path><path d="M836.617 592.177C838.681 591.896 840.933 592.035 843.024 592C840.226 597.857 837.068 602.818 833.11 607.967C834.087 609.883 836.016 611.526 836.764 613.445C837.495 615.321 836.217 617.424 835.412 619.09C833.547 615.331 833.623 611.545 831.995 607.828C829.905 603.055 826.431 598.669 823.854 594.098C828.064 593.294 832.375 592.802 836.617 592.177Z" fill="#FEFEFE"></path><path d="M823.877 550.686C828.436 552.762 833.154 557.299 837.16 560.375C827.331 563.943 820.8 569.281 813.543 576.673C811.582 578.992 810.978 581.984 808.623 584.093C808.373 582.515 821.795 555.733 823.877 550.686Z" fill="#FEFEFE"></path><path d="M875.932 550.158L876.225 550.443C878.344 560.218 880.438 567.228 875.9 576.835C874.719 575.107 873.654 573.299 872.563 571.514C869.163 565.502 865.886 559.298 862.937 553.052C867.283 552.151 871.615 551.186 875.932 550.158Z" fill="#FEFEFE"></path><path d="M872.913 512.764C878.152 514.465 883.355 516.915 888.47 518.992C891.79 524.566 895.248 530.094 898.194 535.877L893.79 537.915C889.941 539.865 885.938 541.496 881.97 543.184C879.753 537.209 877.799 531.15 876.108 525.006C875.012 520.945 874.376 516.709 872.913 512.764Z" fill="#FEFEFE"></path><path d="M835.417 494.45C835.726 494.451 836.035 494.437 836.344 494.451C841.478 494.683 846.998 503.852 850.203 507.515C846.114 509.756 842.202 511.997 838.347 514.634C835.785 513.974 833.235 513.581 830.621 513.206C826.793 512.709 818.299 513.698 815.48 511.471L815.564 510.451C820.834 503.171 827.489 498.54 835.417 494.45Z" fill="#FEFEFE"></path><path d="M791.517 542.56C801.389 543.605 810.376 544.804 819.775 548.231L811.963 564.729L808.173 572.881C801.021 559.595 793.532 560.319 791.517 542.56Z" fill="#FEFEFE"></path><path d="M843.324 516.851C845.395 517.041 847.443 517.44 849.48 517.851C857.116 519.389 866.247 523.183 870.54 530.055C872.303 532.877 875.658 541.365 874.704 544.579C874.488 545.307 873.731 545.454 873.109 545.788C868.778 546.955 864.22 547.528 859.797 548.28C855.057 541.554 844.149 524.636 843.324 516.851Z" fill="#FEFEFE"></path><path d="M838.891 562.411C844.18 562.45 852.042 570.207 856.08 573.487C852.357 577.411 850.019 582.164 846.543 586.256C842.441 586.261 838.452 585.885 834.384 585.381C827.82 584.023 821.145 583.4 814.572 582.053C820.009 573.701 829.767 566.223 838.891 562.411Z" fill="#FEFEFE"></path><path d="M838.351 524.908C840.029 526.711 841.499 529.801 842.864 531.925C849.901 542.946 856.63 554.152 863.051 565.543L859.714 570.222L855.7 566.843C846.637 558.621 836.408 552.277 826.164 545.688C830.479 538.949 834.305 531.817 838.351 524.908Z" fill="#FEFEFE"></path><path d="M817.866 518.209C823.236 517.409 829.189 517.963 834.512 518.862C831.748 527.185 827.336 534.469 823.036 542.069C818.883 540.547 814.999 539.632 810.617 539.056C804.177 538.603 797.931 537.686 791.61 536.413C791.276 531.597 790.78 527.645 792.401 523.003C800.54 520.568 809.407 518.913 817.866 518.209Z" fill="#FEFEFE"></path><path d="M776.808 540.92C780.164 541.086 783.525 541.383 786.878 541.618C787.364 562.197 791.67 569.988 802.768 586.763C804.768 589.785 805.834 592.985 808.05 595.946C810.508 595.696 813.065 595.329 815.535 595.365C818.217 595.404 820.792 596.307 822.567 598.369C824.607 600.738 828.147 608.853 827.836 611.985L826.816 612.34C809.646 608.56 795.254 598.311 785.584 583.665C780.278 575.627 772.729 562.425 773.69 552.356C774.033 548.762 775.976 545.19 776.686 541.569L776.808 540.92Z" fill="#FEFEFE"></path><path d="M853.622 471.539C857.357 472.841 860.988 474.389 864.515 476.183C868.041 477.976 871.43 479.999 874.683 482.251C887.031 490.659 900.095 504.039 902.958 519.265C897.076 516.675 891.153 514.089 885.12 511.868C880.949 510.333 875.717 509.112 871.867 506.965C870.828 506.386 869.992 505.358 869.224 504.466C862.572 499.837 855.907 498.313 848.612 495.263C845.197 493.835 841.924 491.875 838.396 490.755C834.917 489.65 831.737 491.969 828.789 493.564C831.431 487.91 834.169 482.303 837.003 476.742C839.693 478.288 842.64 479.668 844.945 481.773C845.146 481.956 845.338 482.148 845.535 482.334C847.899 484.557 852.695 492.54 854.874 493.409C855.909 493.167 856.601 492.811 857.182 491.864C859.824 487.56 854.994 476.127 853.622 471.539Z" fill="#FEFEFE"></path><path d="M823.778 472.643C826.699 472.33 829.807 472.488 832.753 472.465C829.503 479.77 827.939 487.661 824.626 494.922C809.398 500.318 800.173 505.568 789.519 517.82L782.596 520.053L778.083 521.089C777.016 519.476 775.712 518.141 774.387 516.742C776.329 509.869 779.712 502.824 783.842 496.994C793.288 483.657 807.829 475.278 823.778 472.643Z" fill="#FEFEFE"></path><path d="M904.912 539.521C905.243 542.58 904.493 546.543 904.014 549.617C903.907 550.266 903.791 550.914 903.668 551.56C903.545 552.207 903.413 552.852 903.274 553.495C903.135 554.138 902.988 554.779 902.833 555.419C902.678 556.058 902.515 556.696 902.344 557.331C902.173 557.966 901.995 558.6 901.809 559.231C901.623 559.862 901.429 560.491 901.227 561.117C901.026 561.744 900.816 562.368 900.599 562.989C900.382 563.61 900.157 564.228 899.925 564.844C899.693 565.459 899.453 566.072 899.206 566.682C898.959 567.292 898.704 567.899 898.441 568.502C898.179 569.105 897.909 569.705 897.632 570.302C897.355 570.899 897.071 571.493 896.78 572.083C896.488 572.672 896.189 573.258 895.883 573.841C895.577 574.424 895.264 575.002 894.943 575.577C894.623 576.152 894.296 576.723 893.962 577.29C893.627 577.857 893.286 578.419 892.938 578.977C892.59 579.536 892.235 580.09 891.873 580.639C891.511 581.189 891.143 581.734 890.768 582.275C890.393 582.816 890.011 583.351 889.622 583.882C889.234 584.413 888.839 584.94 888.438 585.461C888.037 585.983 887.629 586.5 887.215 587.011C886.801 587.522 886.381 588.028 885.954 588.529C885.527 589.03 885.095 589.526 884.656 590.017C884.217 590.508 883.773 590.993 883.322 591.472C882.871 591.951 882.415 592.425 881.953 592.893C881.49 593.362 881.022 593.824 880.549 594.281C880.075 594.738 879.596 595.189 879.111 595.634C878.626 596.079 878.136 596.518 877.641 596.951C877.146 597.384 876.645 597.81 876.139 598.231C875.632 598.652 875.121 599.066 874.605 599.474C874.089 599.882 873.568 600.284 873.042 600.679C872.515 601.074 871.984 601.463 871.449 601.845C866.286 605.521 849.392 614.807 843.218 613.793L842.903 612.571C843.635 605.385 844.809 598.729 846.864 591.785C851.267 589.65 870.717 582.514 874.841 583.812C875.936 584.156 876.912 584.396 878.036 584.633C879.605 584.158 880.349 583.838 881.102 582.324C882.119 580.278 882.573 577.736 883.118 575.51C885.413 566.147 886.321 557.534 883.225 548.19C890.373 544.991 897.563 542.231 904.912 539.521Z" fill="#FEFEFE"></path><path d="M562.306 357.481C564.448 342.195 564.873 326.467 566.611 311.09C570.206 279.273 576.244 247.69 577.041 215.633C577.204 209.067 577.694 202.458 576.094 196.024C573.346 184.968 567.878 174.401 563.882 163.733C561.139 156.409 558.928 148.899 556.432 141.488C552.186 128.878 547.873 116.421 544.061 103.665C542.59 98.7458 540.539 93.9636 539.303 88.9922C538.56 86.0005 537.229 81.0681 538.841 78.4197L539.805 78.3851C540.283 78.8057 540.722 79.1938 541.098 79.7108C544.632 84.5609 553.409 116.479 556.221 124.486C560.414 136.426 563.927 148.679 568.306 160.521C572.795 172.66 579.397 184.433 581.781 197.238C583.661 207.33 583.149 223.682 582.087 233.938C581.679 237.88 580.794 241.754 580.343 245.698C578.203 264.395 575.47 283.006 573.387 301.717C571.931 314.462 570.566 327.217 569.291 339.982C568.514 348.578 568.196 357.196 567.107 365.766C582.577 366.813 597.128 371.508 610.901 378.438C614.436 376.87 617.769 376.026 621.662 376.205C628.783 376.531 636.51 380.19 641.242 385.565C648.81 394.162 649.37 404.781 648.507 415.707C646.668 438.993 629.306 449.659 610.031 459.148C605.533 461.362 600.263 462.961 596.327 466.11C589.251 471.771 583.93 479.94 577.27 486.172C571.752 491.334 565.811 496.511 559.837 501.144C554.65 505.166 549.164 508.89 544.181 513.156L543.688 513.584C547.681 516.815 551.619 519.959 554.369 524.382C557.743 529.81 559.131 536.511 557.565 542.766C555.551 550.816 549.592 555.198 542.794 559.077C546.101 566.236 548.804 573.264 547.007 581.316C545.617 587.542 542.275 590.623 537.139 593.86C539.733 598.23 542.645 602.663 543.106 607.86C543.47 611.978 542.613 616.928 539.777 620.098C536.135 624.168 531.092 624.629 526.001 624.878C520.945 625.126 516.241 627.433 511.334 627.578C501.168 627.88 489.014 623.398 481.78 616.192C476.24 610.674 474.605 604.862 474.647 597.259C465.865 592.455 455.952 586.784 452.765 576.564C449.718 566.796 453.293 556.872 457.769 548.221C453.818 544.046 450.364 539.797 448.621 534.215C445.256 523.441 447.103 510.527 452.14 500.663C450.349 499.606 448.599 498.483 446.892 497.296C445.184 496.108 443.523 494.858 441.909 493.547C440.294 492.235 438.731 490.865 437.219 489.437C435.707 488.008 434.25 486.526 432.849 484.989C429.374 481.243 425.9 476.474 421.714 473.534C418.405 471.211 413.342 470.024 409.593 468.347C393.337 461.076 378.197 447.321 371.797 430.477C367.855 420.1 366.413 405.982 371.228 395.654C374.414 388.821 379.944 385.039 386.854 382.643C390.822 384.537 393.227 386.83 395.852 390.27C396.804 389.019 397.851 387.865 398.939 386.732C400.606 385.003 402.384 383.395 404.271 381.909C406.159 380.424 408.139 379.074 410.212 377.86C418.377 373.108 438.654 365.073 447.75 364.887C448.102 361.878 448.43 358.867 448.734 355.854C441.329 360.024 437.244 366.06 427.725 364.897C424.343 364.483 421.158 362.987 419.152 360.163C417.588 357.959 417.064 355.462 416.891 352.808C416.519 347.107 417.631 341.146 418.5 335.524C421.014 319.272 425.011 303.066 428.888 287.08C430.484 280.498 432.363 273.991 433.607 267.329C427.401 273.4 421.205 278.41 412.44 280.045C406.347 281.181 400.45 280.762 395.24 277.061C391.531 274.426 388.224 270.187 387.621 265.57C387.334 263.369 387.664 261.223 388.751 259.281C390.721 255.762 394.29 253.171 396.97 250.193C398.748 248.218 400.034 245.938 401.391 243.667C407.936 232.711 413.663 221.265 419.895 210.128C429.161 193.568 439.456 176.988 450.769 161.735C448.226 155.562 446.155 149.004 444.346 142.578C442.014 134.294 429.011 88.217 432.182 83.5148C432.624 82.859 433.3 82.9766 434.022 82.8526C435.025 83.4638 435.46 83.8307 435.711 85.0372C436.423 88.458 436.549 92.0908 437.263 95.575C439.15 104.775 449.691 149.518 453.689 155.467C453.845 155.7 454.016 155.923 454.18 156.151C452.776 147.883 453.741 141.079 458.638 134.106C466.133 123.433 476.971 117.096 489.734 114.935C503.744 112.562 521.574 114.807 533.372 123.231C537.019 125.835 541.601 130.623 542.387 135.219C542.645 136.727 542.497 138.345 542.411 139.866C544.765 142.681 545.953 145.291 547.546 148.552C547.835 149.144 547.96 149.332 548.625 149.716C548.814 149.826 549.758 149.985 549.941 150.024C551.047 150.254 551.577 150.393 552.328 151.299L552.706 152.531L552.194 153.472C550.562 153.948 549.488 153.48 547.846 153.118C541.655 166.285 534.57 172.223 520.876 177.188C504.583 183.095 486.614 183.163 470.814 175.587C467.075 173.795 462.77 171.008 460.092 167.796C457.301 168.032 455.059 167.431 452.528 166.278C436.228 189.81 422.261 214.407 408.941 239.7C410.611 240.223 412.186 240.835 413.71 241.708C417.378 243.81 420.117 247.294 421.037 251.442C421.654 254.222 421.506 257.407 419.782 259.782C418.69 261.285 416.932 262.113 415.103 262.257C409.729 262.677 404.236 258.682 400.29 255.44C398.914 256.825 397.074 258.431 396.095 260.122C395.246 261.588 395.506 263.961 396.093 265.501C397.299 268.669 400.336 270.627 403.293 271.961C423.114 280.903 436.749 258.948 446.57 245.241C448.454 242.612 451.193 237.973 454.262 236.82L455.503 238.722L455.509 238.572C454.806 243.822 440.196 257.868 437.625 265.259C434.984 272.849 422.853 324.293 424.801 328.5C427.479 329 430.333 328.036 433.004 327.669C439.868 326.726 445.7 329.194 451.075 333.191C453.808 318.971 455.408 304.425 457.386 290.081C458.14 284.612 458.484 278.549 459.836 273.219C460.12 272.098 460.479 271.442 461.377 270.72C463.607 271.543 464.469 273.918 464.487 276.25C464.52 280.505 462.596 285.584 461.909 289.864C460.417 299.161 449.902 363.771 452.055 367.651C455.862 365.714 458.37 364.187 462.859 364.312C475.161 364.654 481.43 376.124 489.005 384.116C490.683 359.869 491.684 335.542 493.624 311.328C494.109 305.275 493.893 298.991 494.769 292.993C495.055 291.031 495.411 289.448 496.713 287.925C498.093 287.449 498.103 287.562 499.481 288.1C500.208 289.027 500.667 289.436 500.736 290.665C500.807 291.914 498.665 305.186 498.426 307.848C497.015 323.612 495.935 339.558 495.339 355.371C494.961 365.41 495.262 375.63 494.2 385.611C496.985 379.925 498.013 373.65 503.772 369.936C506.843 367.956 510.347 367.651 513.86 368.439C521.081 370.059 524.976 375.156 528.723 381.011C526.917 362.04 528.858 342.038 530.408 323.061C530.923 316.749 533.39 285.505 537.397 282.098C538.671 282.243 538.775 282.371 539.765 283.208C541.832 288.249 536.374 314.142 535.675 321.675C534.643 332.808 533.418 344.999 534.336 356.144L534.408 356.96C536.393 354.498 538.324 352.061 540.993 350.291C544.342 348.071 548.276 347.069 552.229 348.093C557.278 349.4 559.755 353.339 562.306 357.481Z" fill="#F3B09D"></path><path d="M407.319 245.197C408.322 245.699 409.356 246.374 410.223 247.084C412.365 248.841 412.867 251.631 413.203 254.217C411.195 253.562 409.414 252.703 408.154 250.925C406.818 249.039 406.89 247.375 407.319 245.197Z" fill="#FEFEFE"></path><path d="M437.958 344.811L438.383 344.41C439.441 343.393 440.182 342.724 440.612 341.268C440.493 339.808 439.871 338.903 438.798 337.942C437.814 337.062 436.479 336.518 435.15 336.567C433.602 336.624 432.636 337.249 431.4 338.09C430.903 338.428 431.14 338.356 430.661 338.4C430.777 338.137 430.896 337.876 431.008 337.611C431.533 336.364 431.676 335.06 431.851 333.73C432.656 332.602 433.835 332.09 435.186 331.928C438.673 331.507 443.139 333.46 445.682 335.759C447.658 337.546 448.75 339.892 448.732 342.564C448.704 346.685 446.483 350.231 443.572 353.016C442.605 353.94 441.44 354.606 440.282 355.261C440.296 355.213 440.309 355.164 440.324 355.117C441.135 352.512 441.683 349.305 440.376 346.742C439.722 345.459 439.303 345.214 437.958 344.811Z" fill="#FEFEFE"></path><path d="M422.859 354.596C421.322 349.495 421.091 342.739 422.643 337.586C423.205 335.721 423.96 334.465 425.68 333.491C426.452 333.626 426.725 333.528 427.297 334.148C430.123 337.216 429.542 343.045 429.546 346.889C431.591 347.839 433.179 348.485 435.461 348.396C436.081 349.392 436.04 349.688 436.073 350.824L435.538 351.7L434.741 351.657C433.344 351.725 432.674 352.021 431.47 352.654C429.556 352.269 427.068 350.892 425.225 351.327L424.282 352.268C424.31 353.574 424.518 354.196 425.438 355.172C426.836 356.655 429.681 358.168 431.767 358.073C433.539 357.993 435.647 357.128 437.335 356.59L437.709 356.997C435.473 358.377 433.272 359.344 430.581 359.13C427.167 358.858 425.071 357.026 422.859 354.596Z" fill="#FEFEFE"></path><path d="M494.852 121.609C496.644 121.446 499.54 121.103 501.232 121.77C502.2 122.151 501.85 121.906 502.352 122.932C501.714 123.531 501.308 123.673 500.418 123.84C493.512 125.138 489.596 124.325 482.974 127.953C478.845 130.215 475.195 133.923 474.06 138.608C472.833 143.667 474.713 148.039 477.239 152.297L477.66 152.697C477.243 152.6 477.034 152.573 476.619 152.348C472.964 150.369 468.381 146.401 467.587 142.155C467.137 139.747 467.846 137.503 469.197 135.508C474.781 127.269 485.622 123.522 494.852 121.609Z" fill="#FEFEFE"></path><path d="M548.356 362.755C548.217 361.716 548.19 360.79 548.245 359.744C548.98 358.734 549.557 357.802 550.112 356.673C549.751 355.252 548.62 354.784 547.488 353.905L547.54 353.442C548.997 352.957 550.641 353.087 552.125 353.455C556.102 354.442 559.267 361.272 561.133 364.592C560.56 365.945 559.979 367.317 559.211 368.572C556.352 373.242 549.72 379.445 544.223 380.517C542.748 380.805 541.196 380.606 539.986 379.645C537.884 377.973 537.152 374.887 536.95 372.35C536.603 367.971 537.416 360.672 540.53 357.306C541.21 356.571 541.884 355.89 542.907 355.857C542.773 356.453 542.656 357.063 542.501 357.654C542.013 359.516 541.892 360.517 542.29 362.437C542.458 362.711 542.633 362.98 542.794 363.258C545.112 367.251 540.164 373.36 543.045 376.833C544.429 377.183 544.632 377.309 545.953 376.832C547.779 374.846 548.266 372.236 548.215 369.579C548.174 367.499 547.855 366.048 548.377 363.978C548.551 363.29 548.506 363.585 548.356 362.755Z" fill="#FEFEFE"></path><path d="M459.81 370.608C461.891 370.466 464.123 370.208 466.185 370.595C472.46 371.772 475.878 378.939 479.067 383.809C477.222 391.515 473.27 396.099 467.377 401.011C466.361 401.723 465.31 402.317 464.156 402.776C462.005 403.632 459.351 403.63 457.24 402.645C454.494 401.365 452.653 398.654 451.737 395.842C449.854 390.061 450.14 380.626 453.05 375.279C454.703 372.242 456.697 371.587 459.81 370.608Z" fill="#FEFEFE"></path><path d="M460.197 371.96C461.534 371.857 463.202 371.825 464.335 372.679C466.042 373.967 469.213 378.969 469.015 381.259C468.917 382.389 468.523 382.762 467.772 383.489C465.512 382.168 465.094 378.877 463.173 377.124C462.107 376.151 461.824 376.22 460.5 376.357C458.392 377.948 457.39 379.579 457.038 382.238C456.485 386.42 457.79 390.544 460.419 393.767C462.626 394.984 464.874 394.677 466.978 395.596C468.137 396.102 467.905 396.222 468.244 397.278L467.549 398.433C465.927 399.201 464.704 399.414 462.925 399.009C460.143 398.376 457.825 396.475 456.314 394.097C453.726 390.024 453.04 383.493 454.278 378.816C455.189 375.371 457.271 373.755 460.197 371.96Z" fill="#F3B09D"></path><path d="M510.102 122.875C517.594 123.773 525.429 125.165 530.482 131.43C532.066 133.393 533.007 135.694 532.755 138.246C532.274 143.117 527.337 146.443 523.715 149.19C520.937 151.298 516.77 153.886 513.361 154.603C516.575 152.319 525.849 146.955 526.277 142.901C526.293 142.756 526.3 142.611 526.298 142.466C526.296 142.321 526.285 142.176 526.266 142.032C526.246 141.888 526.218 141.746 526.181 141.605C526.144 141.464 526.098 141.326 526.044 141.191C525.991 141.056 525.929 140.925 525.858 140.798C525.788 140.67 525.711 140.547 525.626 140.43C525.541 140.312 525.449 140.2 525.35 140.093C525.251 139.986 525.146 139.886 525.035 139.792C524.1 138.989 522.486 138.53 521.245 138.765C519.248 139.142 518.777 140.457 517.648 141.997C513.503 147.652 504.447 150.993 497.691 151.914C492.995 152.555 486.118 152.266 482.238 149.171C480.948 148.142 480.312 146.778 480.142 145.153C479.848 142.342 481.727 138.797 483.618 136.845C486.547 133.82 490.43 132.357 494.343 131.113C494.49 131.264 494.636 131.416 494.785 131.565C496.315 133.093 497.672 134.006 499.621 134.92C499.065 139.818 492.674 144.979 490.575 149.668L489.737 151.53C496.582 148.747 502.81 145.569 505.93 138.385C506.685 136.648 506.646 134.901 506.972 133.079C505.527 130.595 504.013 128.153 502.432 125.754C505.142 128.145 508.026 130.242 509.284 133.749C509.588 134.69 509.548 134.382 509.636 135.215C509.779 136.572 509.923 137.739 510.311 139.05C511.151 139.868 511.775 140.211 512.965 140.35C514.589 140.539 515.709 140.064 517.004 139.091C517.522 137.837 517.527 137.736 517.242 136.408C516.169 135.269 514.766 134.043 514.332 132.494C514.257 132.228 514.202 131.956 514.138 131.686C514.274 128.272 512.282 125.327 510.102 122.875Z" fill="#FEFEFE"></path><path d="M520.062 128.376C523.006 128.198 525.278 128.499 527.737 130.199C529.043 131.103 530.025 132.371 530.191 134.004C530.361 135.678 529.646 136.632 528.677 137.85C526.51 137.655 523.657 136.62 521.655 135.741C520.058 135.039 519.28 134.163 518.644 132.538C518.625 130.815 519.247 129.822 520.062 128.376Z" fill="#F3B09D"></path><path d="M507.036 375.083C509.023 374.858 510.989 374.753 512.968 375.11C517.242 375.881 521.349 377.73 523.752 381.508C526.792 386.286 526.567 393.395 525.231 398.747C523.216 406.821 517.741 412.277 510.905 416.482C508.648 416.608 506.363 416.499 504.103 416.462C501.827 415.225 499.954 413.894 498.333 411.835C493.293 405.437 493.781 398.02 494.764 390.455L495.217 390.29C499.629 406.864 504.802 399 508.725 404.041C508.944 407.288 505.397 408.848 503.795 411.424L504.257 412.117C506.987 412.712 510.009 412.481 512.798 412.501C513.795 409.846 516.548 405.197 516.456 402.465C516.405 400.954 516.078 400.744 515.081 399.723C513.042 398.97 510.936 399.573 508.846 399.905C505.849 398.523 503.514 397.323 501.824 394.352C499.813 390.818 499.329 386.301 500.595 382.423C501.738 378.922 503.769 376.65 507.036 375.083Z" fill="#FEFEFE"></path><path d="M511.038 378.31C513.064 378.566 514.824 378.948 516.005 380.833C517.089 382.564 516.929 384.404 516.522 386.302C514.764 386.599 514.225 386.599 512.79 385.596C511.469 383.465 511.382 380.756 511.038 378.31Z" fill="#F3B09D"></path><path d="M538.742 145.408C539.116 145.959 539.572 146.566 539.858 147.176C540.481 148.502 540.661 149.661 540.185 151.052C537.514 158.857 532.317 164.097 525.173 167.879C510.594 175.598 494.977 177.53 479.24 172.505C470.802 169.811 463.639 165.696 459.442 157.586C458.239 153.556 458.491 149.765 458.627 145.61C461.312 149.036 463.989 152.337 467.337 155.146C476.394 162.746 488.753 166.401 500.483 165.294C514.565 163.965 529.701 156.325 538.742 145.408Z" fill="#FEFEFE"></path><path d="M531.217 596.496C531.97 596.427 532.429 596.365 533.15 596.662C534.47 597.206 536.045 601.495 536.548 602.971C537.768 606.549 538.472 610.881 536.666 614.394C534.895 617.841 531.113 619.867 527.506 620.85C515.652 624.08 501.699 620.877 491.194 615.077C490.822 614.804 490.452 614.53 490.083 614.253C484.106 609.761 481.462 606.29 480.383 598.773C502.233 603.715 509.929 603.7 531.217 596.496Z" fill="#FEFEFE"></path><path d="M462.021 551.583C466.437 553.409 470.572 556.184 474.99 558.124C489.173 564.353 504.266 565.397 519.535 564.137C524.956 563.69 532.125 561.342 536.785 561.378C537.963 561.891 538.815 562.33 539.605 563.375C542.139 566.725 542.881 573.657 542.249 577.754C541.466 582.828 539.325 585.537 535.421 588.552C522.551 596.928 508.363 598.414 493.6 595.302C482.462 592.953 467.791 587.699 461.494 577.481C456.814 569.886 460.014 559.619 462.021 551.583Z" fill="#FEFEFE"></path><path d="M584.672 469.475L585.385 469.819C581.187 474.152 577.393 478.85 573.135 483.139C563.086 493.26 539.358 514.485 526.009 517.803C502.727 523.589 472.816 505.17 453.727 493.628C445.991 488.667 439.232 483.254 433.056 476.424C444.431 480.41 456.193 482.115 468.129 483.415C508.103 487.769 546.922 483.292 584.672 469.475Z" fill="#FEFEFE"></path><path d="M456.098 503.78C468.047 511.378 480.106 516.974 493.958 520.227C509.863 523.963 525.951 524.907 540.343 516C545.803 520.268 552.254 527.021 553.462 534.068C554.471 539.958 552.198 544.379 548.834 548.949C547.856 549.755 546.864 550.587 545.814 551.301C533.173 559.901 511.555 560.636 497.022 557.768C483.914 555.182 465.851 547.911 458.292 536.192C451.929 526.327 453.555 514.55 456.098 503.78Z" fill="#FEFEFE"></path><path d="M566.436 369.455C573.7 370.26 580.842 371.678 587.862 373.709C598.43 376.795 613.875 382.754 619.266 393.241C620.816 396.257 620.47 398.93 619.45 402.054C615.916 412.882 606.418 419.229 596.665 424.032C588.109 428.245 578.874 430.927 569.756 433.637C525.025 446.928 473.545 450.804 428.803 435.46C419.688 432.334 408.595 427.554 402.851 419.359C401.359 417.229 400.492 414.723 399.279 412.438C398.659 411.272 398.194 410.14 396.744 409.923C395.455 409.73 395.07 409.98 394.191 410.768C393.813 412.479 394.152 413.79 394.708 415.416C397.848 424.601 405.052 429.937 413.432 434.164C423.914 439.451 434.749 442.391 446.145 444.873C489.077 454.221 536.114 450.781 577.794 436.951C594.524 431.399 616.192 423.361 624.316 406.288C630.215 393.893 621.772 390.649 618.225 381.188C618.495 380.994 618.74 380.759 619.035 380.604C620.517 379.823 622.61 380.423 624.105 380.877C631.277 383.057 637.074 386.849 640.515 393.751C645.408 403.564 644.121 417.264 640.739 427.346C640.149 428.554 639.549 429.768 638.859 430.925C626.8 451.151 585.068 466.839 562.446 472.489C518.913 483.361 469.362 486.308 426.647 470.533C419.795 468.003 413.079 465.356 406.812 461.554C390.882 451.891 377.969 437.634 373.512 419.168C371.62 411.329 372.589 403.011 376.916 396.115C378.705 393.265 382.392 388.631 385.963 388.097C390.186 387.465 391.883 393.526 394.947 395.296C398.045 397.087 401.019 392.601 402.984 390.61C405.34 388.222 407.797 385.839 410.609 383.985C419.922 377.843 435.437 372.741 446.41 370.158C446.839 379.191 442.967 394.73 446.843 402.594C448.617 406.193 452.183 408.63 455.894 409.913C460.271 411.426 465.24 411.47 469.371 409.211C477.168 404.948 481.036 393.946 483.405 385.964C485.305 388.052 487.001 390.281 488.717 392.519C488.445 397.176 488.123 401.862 488.687 406.511C489.389 412.305 490.973 416.245 495.752 419.875C500.194 423.248 506.198 425.438 511.805 424.488C517.145 423.583 521.105 419.977 524.211 415.754C531.41 405.965 533.188 394.515 531.469 382.64C532.448 384.542 533.395 386.556 534.587 388.334C537.11 392.097 540.52 392.773 544.667 393.453C546.789 392.758 548.892 391.998 550.893 390.998C559.771 386.561 563.46 378.347 566.436 369.455Z" fill="#FEFEFE"></path><path d="M442.642 419.297C443.091 419.545 443.797 419.906 444.164 420.244C445.201 421.2 445.29 421.935 445.473 423.232C444.808 424.762 444.389 425.009 443.105 426.005C442.369 425.606 441.482 425.185 440.863 424.619C439.929 423.765 439.791 422.902 439.779 421.718C440.579 420.232 441.183 419.988 442.642 419.297Z" fill="#F3B09D"></path><path d="M567.367 385.705C568.055 385.866 569.195 386.039 569.784 386.456C570.851 387.212 570.878 387.766 571.105 388.949C570.691 390.605 570.126 391.323 568.946 392.538C568.555 392.467 568.151 392.409 567.777 392.265C566.407 391.739 566.217 391.493 565.573 390.262C565.678 388.442 566.464 387.255 567.367 385.705Z" fill="#F6B99C"></path><path d="M463.638 427.251C464.416 427.319 465.231 427.379 465.988 427.579C467.323 427.931 468.064 428.642 468.768 429.801C469.029 431.434 468.693 432.112 467.948 433.495C467.375 433.493 466.575 433.541 466.003 433.392C464.829 433.086 463.832 432.486 463.355 431.319C462.788 429.932 463.232 428.598 463.638 427.251Z" fill="#F3B09D"></path><path d="M546.693 418.276C548.035 418.272 549.337 418.342 550.586 418.895C551.736 419.403 552.7 420.243 553.085 421.471C553.538 422.912 553.104 423.82 552.549 425.112C551.155 425.384 549.957 425.613 548.552 425.142C547.358 424.742 546.419 423.737 546.052 422.543C545.594 421.053 546.148 419.645 546.693 418.276Z" fill="#F3B09D"></path><path d="M633.581 401.017C635.085 401.135 635.778 401.276 637.1 402.106C637.414 402.888 637.71 403.141 637.444 403.996C636.65 406.554 634.792 407.236 632.548 408.322C631.93 408.237 631.122 408.18 630.52 407.97C629.297 407.545 628.832 407.007 628.19 405.928C628.185 404.762 628.217 404.411 628.878 403.39C629.979 401.687 631.752 401.441 633.581 401.017Z" fill="#F3B09D"></path><path d="M572.657 405.966C573.688 405.948 574.757 405.942 575.771 406.15C578.065 406.621 578.408 408.722 579.495 410.449C580.556 412.134 581.344 412.459 583.258 412.911C585.501 413.441 586.35 413.625 587.645 415.586C587.795 416.954 587.678 417.685 587.203 418.977C577.089 422.531 581.25 414.29 575.012 411.973C574.112 411.639 573.55 411.389 572.811 410.738C572.217 409.039 572.432 407.727 572.657 405.966Z" fill="#F3B09D"></path><path d="M780.344 622.503C780.873 622.495 781.162 622.475 781.66 622.512C783.767 622.669 786.204 623.645 787.477 625.402C790.325 629.332 788.178 636.633 787.389 641.056C791.47 644.25 794.393 647.289 796.191 652.298C800.882 665.367 799.963 686.74 801.292 701.056C802.077 709.514 803.826 717.608 805.115 725.972C809.404 753.828 769.732 813.581 755.143 838.527C751.595 844.594 748.154 850.75 744.42 856.705C742.357 859.997 739.925 863.154 737.978 866.497C736.567 868.919 736.095 871.892 734.424 874.134C730.899 874.505 730.648 870.229 728.033 869.738C728.23 870.46 728.279 870.86 728.289 871.637C696.131 899.805 663.272 916.957 622.654 929.988C549.454 953.471 476.465 952.253 402.924 931.423C390.017 927.893 377.301 923.773 364.776 919.064C344.961 911.414 326.035 901.988 307.165 892.296L302.152 894.549C301.387 893.77 300.648 892.966 299.936 892.138C295.975 887.514 293.014 881.508 289.869 876.265C283.102 864.98 276.535 853.515 269.492 842.401C261.069 829.108 252.231 816.065 243.743 802.806C239.225 795.749 233.754 788.451 230.75 780.603C224.85 765.187 227.659 710.91 229.206 692.423C229.62 687.471 230.125 672.504 234.424 669.918C235.484 669.28 236.347 669.071 237.545 669.461C240.253 670.342 241.898 673.689 243.203 675.999C243.219 674.134 243.312 672.274 243.483 670.417C243.654 668.56 243.901 666.714 244.225 664.877C244.55 663.041 244.95 661.221 245.426 659.418C245.901 657.615 246.451 655.835 247.075 654.078C248.06 651.278 249.675 645.975 252.661 644.826C253.361 644.556 254.072 644.697 254.727 645.059C261.91 649.026 266.286 674.802 267.473 682.873C268.489 694.496 269.953 706.769 274.207 717.686C283.245 740.885 299.067 761.357 322.19 771.563C323.485 754.983 314.685 746.467 310.689 731.693C309.091 725.786 308.628 719.222 311.933 713.787C314.26 709.958 317.918 707.446 322.287 706.495C324.273 706.062 326.829 705.875 328.541 707.194C332.392 710.162 333.908 719.183 335.712 723.633C336.705 726.085 338.032 728.441 339.359 730.725C351.492 751.599 374.285 772.446 377.816 796.921L447.691 801.492C455.575 786.991 464.398 773.051 472.369 758.629C478.134 748.198 483.654 737.523 489.25 726.991C494.057 717.944 498.785 706.031 506.133 698.912C508.175 696.934 510.565 695.896 513.438 696.046C516.965 696.23 520.259 698.149 522.644 700.679C529.31 707.749 533.882 718.237 538.619 726.67C547.088 741.606 555.394 756.632 563.536 771.749C566.945 778.06 570.396 786.281 575.077 791.687C578.049 792.944 582.788 791.774 585.945 791.363C609.135 788.344 631.014 781.43 653.095 774.013C656.242 757.873 662.739 741.723 670.561 727.31C675.287 718.601 681.058 710.374 686.309 701.972C691.301 693.985 696.078 684.48 702.368 677.494C704.465 675.165 707.139 673.087 710.218 672.279C712.488 671.683 714.752 671.949 716.72 673.267C719.306 674.999 721.133 678.474 722.075 681.358C728.142 699.924 711.561 711.623 708.894 728.491C707.935 734.562 710.324 741.49 711.699 747.4L716.263 745.287C742.181 733.082 756.318 703.385 759.858 676.224C761.416 664.272 761.001 651.425 765.209 639.998C768.123 632.084 772.492 626.1 780.344 622.503Z" fill="#F3B09D"></path><path d="M512.658 704.3C513.918 704.531 514.879 704.874 515.939 705.582C518.504 707.294 520.041 709.898 521.54 712.512C527.278 722.512 531.868 733.175 537.27 743.357L577.22 818.749C580.145 824.326 588.562 837.222 589.401 842.527C589.512 843.225 589.668 844.379 589.166 844.928C584.578 849.936 524.843 846.343 514.75 846.733C502.644 847.389 490.434 846.533 478.32 846.374C467.411 846.231 456.037 846.854 445.187 845.77C442.657 845.517 439.796 845.163 437.603 843.822C437.263 842.938 436.96 842.523 437.092 841.555C437.731 836.891 449.352 819.241 452.313 813.918C456.008 807.275 459.197 800.358 462.912 793.716C469.996 781.05 477.519 768.63 484.405 755.853C489.118 746.953 493.591 737.934 497.823 728.795C500.423 723.208 502.812 717.169 505.914 711.844C507.621 708.913 509.858 706.225 512.658 704.3Z" fill="#FEFEFE"></path><path d="M508.718 833.168C512.269 832.93 516.69 832.485 520.047 833.757C521.351 834.25 521.684 834.712 522.229 835.946C521.938 837.451 521.231 838.086 520.199 839.125C516.995 839.059 509.682 839.433 507.089 837.432C506.004 836.595 506.084 836.271 506.003 835.005C506.877 833.737 507.319 833.717 508.718 833.168Z" fill="#F3B09D"></path><path d="M509.163 817.594C513.047 817.51 519.971 818.499 523.112 820.757C524.194 821.535 524.352 822.135 524.517 823.395C523.472 825.212 521.493 825.912 519.618 826.613C515.656 826.825 511.119 826.698 507.321 825.454C505.773 824.947 503.709 823.998 503.177 822.312C502.766 821.009 503.019 820.458 503.59 819.349C505.165 818.14 507.257 817.967 509.163 817.594Z" fill="#F3B09D"></path><path d="M513.622 746.181C517.006 745.725 521.111 745.865 524.397 746.686C528.822 747.79 533.609 750.405 535.872 754.522C537.642 757.741 537.468 761.409 536.471 764.842C533.618 774.668 526.761 782.612 522.002 791.46C519.709 795.724 518.377 800.692 515.668 804.702C514.522 806.398 512.997 807.989 511.152 808.923C510.05 809.48 509.193 809.542 508.011 809.18C507.105 808.42 506.544 807.775 506.133 806.642C504.164 801.217 506.533 796.458 508.934 791.714C513.124 784.697 528.798 766.674 527.079 759.23C526.662 757.423 525.074 756.341 523.51 755.58C509.934 748.977 503.542 764.619 497.604 766.216C496.395 766.542 494.87 766.461 493.819 765.748C492.776 765.041 492.446 764.082 492.243 762.892C491.748 759.989 493.541 756.676 495.294 754.507C499.976 748.71 506.608 747.059 513.622 746.181Z" fill="#F3B09D"></path><path d="M253.451 653.217C263.404 662.599 262.21 697.529 265.46 711.547C268.648 725.297 274.063 737.31 282.372 748.726C292.569 762.735 304.433 772.327 321.79 775.037C321.046 778.042 320.251 781.423 320.088 784.51C319.985 786.457 320.035 789.454 321.399 790.954L322.327 790.617C325.584 785.995 326.903 781.091 328.048 775.632C329.164 770.308 329.912 764.676 329.044 759.259C327.258 748.105 312.807 729.632 316.38 719.692C317.606 716.281 319.776 712.957 323.152 711.425C324.557 711.454 324.997 711.36 326.069 712.404C328.208 714.488 331.031 727.792 333.201 731.961C345.354 755.305 370.238 774.015 370.787 802.171C364.438 813.357 354.142 823.499 345.728 833.187C331.598 849.459 317.641 865.758 302.726 881.33C301.158 878.62 299.482 875.965 297.852 873.291C286.111 853.498 272.921 834.315 260.514 814.914C251.174 800.31 239.772 785.442 235.421 768.433C238.652 774.044 247.576 786.007 253.057 789.093C254.215 789.745 254.716 789.841 255.971 789.473L256.544 788.398C255.885 784.93 241.234 768.447 238.209 763.573C237.162 761.885 236.2 760.313 235.82 758.334C234.21 749.943 234.991 740.266 234.897 731.687C234.706 714.077 232.683 693.461 236.598 676.276C241.286 691.216 242.404 707.105 243.364 722.669C243.865 730.801 242.841 743.089 245.88 750.564C246.361 751.725 246.979 752.809 247.734 753.814C250.42 757.455 253.988 760.516 256.785 764.108C258.953 766.893 260.413 770.394 262.923 772.878C263.989 773.933 264.794 774.364 266.283 774.307L266.76 773.398C266.274 768.029 256.341 754.389 253.759 747.827C247.162 731.067 246.323 687.872 248.811 669.947C249.617 664.139 251.097 658.588 253.451 653.217Z" fill="#FEFEFE"></path><path d="M780.31 628.772C780.906 628.903 781.47 629.131 782.045 629.334C782.318 630 782.434 630.486 782.302 631.207C781.959 633.08 781.169 634.83 780.762 636.686C779.955 640.359 779.647 644.256 779.53 648.009C779.236 657.415 780.766 666.968 781.27 676.368C781.98 689.608 780.064 708.789 777.024 721.724C776.317 724.775 775.468 727.786 774.477 730.757C773.486 733.728 772.357 736.646 771.092 739.511C769.756 742.459 767.189 745.863 766.496 748.958C766.253 750.043 766.36 750.224 766.92 751.101C768.004 751.091 767.652 751.278 768.401 750.669C771.902 747.822 774.926 741.058 776.783 736.955C785.683 717.298 787.686 698.858 787.892 677.526C787.964 670.035 787.553 662.477 788.301 655.011C788.432 653.705 788.435 652.403 789.468 651.546C789.595 651.627 789.734 651.692 789.847 651.79C793.589 655.043 795.382 683.5 795.563 689.878C796.072 707.829 790.485 747.811 777.179 761.448C775.823 762.838 774.969 763.574 774.825 765.588C775.611 766.811 775.831 766.763 777.223 767.266C778.264 767.163 778.944 767.046 779.869 766.508C788.748 761.348 795.807 736.096 797.717 726.33C798.1 731.017 798.156 735.285 797.159 739.909C794.753 751.06 789.21 762.24 784.143 772.421C769.814 801.208 752.757 826.441 737.087 854.277C735.719 856.951 734.07 859.545 732.569 862.151C719.661 846.666 706.186 831.733 693.012 816.488C681.549 803.221 670.296 789.318 657.988 776.854C661.667 766.333 664.236 755.549 668.479 745.187C674.728 729.925 684.327 716.296 693.165 702.472C696.965 696.526 700.435 690.117 704.582 684.426C706.527 681.758 709.431 678.155 712.84 677.598C713.932 678.068 714.494 678.479 715.003 679.605C722.29 695.759 711.073 704.668 705.576 718.365C699.135 734.413 706.667 740.55 708.517 755.244C708.974 758.868 708.137 767.044 709.374 769.917L710.244 769.842C713.245 766.11 712.52 757.981 712.505 753.344C719.974 750.294 727.17 747.218 733.612 742.272C751.436 728.585 762.582 705.147 766.053 683.325C767.543 673.964 767.756 664.391 768.996 654.982C770.285 645.208 772.079 635.093 780.31 628.772Z" fill="#FEFEFE"></path><path d="M652.532 782.529C653.734 782.808 654.528 783.736 655.382 784.615C660.03 789.4 664.15 794.936 668.54 799.977L695.594 830.925C706.072 842.984 719.151 855.517 727.789 868.742C722.631 873.093 717.47 877.51 711.891 881.317C686.454 898.669 655.538 910.096 626.513 919.745C546.381 946.386 466.364 943.741 386.899 916.597C369.709 910.725 352.102 904.108 335.848 895.976C328.074 892.272 320.519 888.562 313.194 884.006C326.036 869.968 338.335 855.412 350.833 841.067C359.019 831.671 368.351 822.219 375.246 811.829C376.657 809.702 377.502 807.453 378.343 805.065C399.853 807.067 421.02 810.834 442.74 810.126C441.086 813.12 439.268 816.033 437.594 819.02C433.971 825.488 423.532 840.884 425.945 848.134C426.835 850.809 429.609 852.386 432.049 853.424C442.406 857.827 456.088 857.933 467.217 858.622C480.316 859.433 493.576 858.7 506.711 858.98C523.06 859.329 539.368 859.389 555.718 859.53C565.55 859.615 575.506 860.067 585.319 859.629C588.107 859.504 591.444 859.405 594.04 858.314C596.799 857.154 599.377 855.137 600.439 852.257C601.495 849.393 601.267 846.199 600.444 843.309C598.772 837.439 595.017 831.888 592.079 826.58C587.279 817.909 582.282 809.129 578.193 800.103C604.14 798.139 628.045 790.891 652.532 782.529Z" fill="#FEFEFE"></path><path d="M509.004 871.035C510.795 870.906 512.373 870.727 514.051 871.481C516.169 872.431 517.731 874.598 518.437 876.747C519.992 881.484 518.812 886.236 516.605 890.515C516.146 890.621 515.26 890.9 514.757 890.851C513.524 890.731 513.263 890.417 512.539 889.537L512.922 887.61C513.942 882.448 513.103 879.772 510.296 875.333C509.251 873.681 508.97 873.034 509.004 871.035Z" fill="#F3B09D"></path><path d="M511 864.146C514.943 864.206 518.195 864.35 521.694 866.468C526.165 869.175 529.212 873.971 530.231 879.051C531.449 885.127 530.392 892.332 526.927 897.535C524.094 901.789 520.26 903.898 515.351 904.898C513.892 904.908 513.429 905.088 512.211 904.225C512.345 900.478 522.562 898.318 525.23 889.2C527.574 881.185 524.107 873.968 517.222 869.646C515.05 868.283 511.75 867.5 510.497 865.264L511 864.146Z" fill="#F3B09D"></path><path d="M494.187 865.532C496.007 865.271 498.23 865.124 499.83 866.149C499.978 869.023 494.567 871.631 492.647 873.572C491.382 874.852 490.425 876.867 489.726 878.497C488.046 882.415 487.459 887.032 489.181 891.034C492.349 898.399 498.252 899.897 504.92 902.635C506.612 903.329 507.459 904.172 508.182 905.786C505.336 907.307 501.477 907.143 498.363 906.445C493.3 905.311 489.046 901.555 486.429 897.194C486.22 896.84 486.02 896.481 485.829 896.117C485.638 895.754 485.457 895.385 485.284 895.012C485.112 894.639 484.949 894.261 484.796 893.88C484.643 893.499 484.499 893.115 484.366 892.726C484.232 892.337 484.108 891.946 483.994 891.551C483.88 891.156 483.776 890.759 483.682 890.359C483.588 889.959 483.504 889.557 483.43 889.152C483.357 888.748 483.293 888.342 483.24 887.935C483.187 887.528 483.144 887.119 483.111 886.709C483.078 886.3 483.056 885.89 483.044 885.479C483.032 885.068 483.03 884.657 483.039 884.246C483.048 883.835 483.068 883.425 483.097 883.015C483.126 882.605 483.166 882.196 483.216 881.789C483.267 881.381 483.327 880.975 483.397 880.57C483.468 880.165 483.549 879.762 483.64 879.361C483.731 878.96 483.832 878.562 483.943 878.167C485.6 872.277 488.91 868.404 494.187 865.532Z" fill="#F3B09D"></path></svg>